<svg xmlns="http://www.w3.org/2000/svg" width="40" height="40" viewBox="0 0 40 40">
  <g id="транспорт" transform="translate(-1129.008 -3806.305)">
    <path id="Path_17666" data-name="Path 17666" d="M468.373,522.194h37.865a1.071,1.071,0,0,0,1.064-1.072V483.27a1.078,1.078,0,0,0-1.064-1.076H468.373a1.08,1.08,0,0,0-1.07,1.076v37.852a1.073,1.073,0,0,0,1.07,1.072m1.848-1.952a.969.969,0,0,1-.969-.965V485.114a.967.967,0,0,1,.969-.962h34.166a.966.966,0,0,1,.969.962v34.163a.968.968,0,0,1-.969.965Z" transform="translate(661.705 3324.111)" fill="#26aca3" fill-rule="evenodd"/>
    <path id="Path_17667" data-name="Path 17667" d="M481.664,508.137a2.047,2.047,0,1,0-2.043,1.994,2.019,2.019,0,0,0,2.043-1.994" transform="translate(660.828 3323.025)" fill="#26aca3" fill-rule="evenodd"/>
    <path id="Path_17668" data-name="Path 17668" d="M500.785,508.137a2.048,2.048,0,1,0-2.045,1.994,2.021,2.021,0,0,0,2.045-1.994" transform="translate(659.193 3323.025)" fill="#26aca3" fill-rule="evenodd"/>
    <path id="Path_17669" data-name="Path 17669" d="M501.71,496.1H474.087a1.915,1.915,0,0,0-1.938,1.888v7.054a1.915,1.915,0,0,0,1.938,1.888h2.263a2.809,2.809,0,0,1,5.615,0h11.87a2.807,2.807,0,0,1,5.612,0h2.263a1.917,1.917,0,0,0,1.941-1.888V497.99a1.918,1.918,0,0,0-1.941-1.888m-21.668,4.77c0,1.263-.3,2.287-.678,2.287h-6.017c-.371,0-.671-1.024-.671-2.287v-1.225c0-1.263.3-2.291.671-2.291h6.017c.378,0,.678,1.028.678,2.291Zm7.893,0c0,1.263-.3,2.287-.68,2.287H481.24c-.375,0-.678-1.024-.678-2.287v-1.225c0-1.263.3-2.291.678-2.291h6.014c.378,0,.68,1.028.68,2.291Zm7.891,0c0,1.263-.3,2.287-.681,2.287h-6.011c-.374,0-.68-1.024-.68-2.287v-1.225c0-1.263.306-2.291.68-2.291h6.011c.378,0,.681,1.028.681,2.291Zm7.478,0c0,1.263-.229,2.287-.511,2.287h-4.521c-.276,0-.5-1.024-.5-2.287v-1.225c0-1.263.229-2.291.5-2.291h4.521c.283,0,.511,1.028.511,2.291Z" transform="translate(661.291 3323.883)" fill="#26aca3" fill-rule="evenodd"/>
  </g>
</svg>
