<svg xmlns="http://www.w3.org/2000/svg" width="40" height="40" viewBox="0 0 40 40">
  <g id="режим" transform="translate(-1087.398 -3806.305)">
    <path id="Path_17665" data-name="Path 17665" d="M426.763,522.194h37.865a1.071,1.071,0,0,0,1.064-1.072V483.27a1.078,1.078,0,0,0-1.064-1.076H426.763a1.08,1.08,0,0,0-1.07,1.076v37.852a1.073,1.073,0,0,0,1.07,1.072m1.848-1.952a.969.969,0,0,1-.969-.965V485.114a.967.967,0,0,1,.969-.962h34.166a.967.967,0,0,1,.969.962v34.163a.969.969,0,0,1-.969.965Z" transform="translate(661.705 3324.111)" fill="#26aca3" fill-rule="evenodd"/>
    <line id="Line_715" data-name="Line 715" x1="21.788" y2="19.709" transform="translate(1097.567 3821.111)" fill="#009791"/>
    <path id="Path_17886" data-name="Path 17886" d="M8.6-2.167V0H.423a5.631,5.631,0,0,1,.8-2.328A15.494,15.494,0,0,1,3.843-5.246,16.5,16.5,0,0,0,5.777-7.238a2.566,2.566,0,0,0,.481-1.428,1.623,1.623,0,0,0-.419-1.2,1.565,1.565,0,0,0-1.158-.419,1.554,1.554,0,0,0-1.162.44,2.26,2.26,0,0,0-.5,1.461L.7-8.616A3.81,3.81,0,0,1,2-11.38a4.376,4.376,0,0,1,2.739-.838,3.959,3.959,0,0,1,2.831.971A3.186,3.186,0,0,1,8.6-8.832,4.2,4.2,0,0,1,8.3-7.267a6.363,6.363,0,0,1-.934,1.556A14.944,14.944,0,0,1,5.844-4.159q-1.1,1.013-1.4,1.345a4.026,4.026,0,0,0-.477.647ZM14.75,0V-2.449H9.77V-4.491l5.279-7.728h1.959V-4.5h1.511v2.05H17.008V0Zm0-4.5V-8.658L11.953-4.5Z" transform="translate(1091.752 3823.79)" fill="#26aca3"/>
    <path id="Path_17885" data-name="Path 17885" d="M.722-9.836V-12H8.7v1.693A12.551,12.551,0,0,0,6.69-7.521,16.263,16.263,0,0,0,5.134-3.656,14.329,14.329,0,0,0,4.607,0H2.357A15.635,15.635,0,0,1,3.4-5.146a17.15,17.15,0,0,1,2.627-4.69Z" transform="translate(1113.321 3840.677)" fill="#26aca3"/>
    <line id="Line_716" data-name="Line 716" x1="21.788" y2="19.709" transform="translate(1097.567 3820.578)" fill="none" stroke="#26aca3" stroke-linecap="round" stroke-linejoin="round" stroke-width="2"/>
  </g>
</svg>
