<svg xmlns="http://www.w3.org/2000/svg" width="40" height="40" viewBox="0 0 40 40">
  <g id="безопасность" transform="translate(-936.614 -2639.989)">
    <path id="Path_17690" data-name="Path 17690" d="M259.979,522.2h37.863a1.072,1.072,0,0,0,1.067-1.072V483.269a1.075,1.075,0,0,0-1.067-1.066H259.979a1.078,1.078,0,0,0-1.07,1.066v37.862a1.075,1.075,0,0,0,1.07,1.072m1.848-1.952a.965.965,0,0,1-.964-.962V485.118a.968.968,0,0,1,.964-.966H296a.97.97,0,0,1,.963.966v34.171a.967.967,0,0,1-.963.962Z" transform="translate(677.705 2157.786)" fill="#26aca3" fill-rule="evenodd"/>
    <path id="Path_17689" data-name="Path 17689" d="M279.975,496.547h8.6a8.612,8.612,0,0,0-17.2,0Zm0-1.185h-6.116a6.125,6.125,0,0,1,12.234,0Z" transform="translate(676.639 2158.289)" fill="#26aca3" fill-rule="evenodd"/>
    <path id="Path_17691" data-name="Path 17691" d="M268.588,498v11.585a7.027,7.027,0,0,0,7.171,6.831h7.955a7.031,7.031,0,0,0,7.177-6.831V498Zm21.055,11.006a6.132,6.132,0,0,1-6.369,5.825h-7.069a6.132,6.132,0,0,1-6.37-5.825v-9.87h19.808Z" transform="translate(676.877 2157.465)" fill="#26aca3" fill-rule="evenodd"/>
    <path id="Path_17692" data-name="Path 17692" d="M282.635,505.989a2.048,2.048,0,1,0-2.042,1.929,1.989,1.989,0,0,0,2.042-1.929" transform="translate(676.025 2156.947)" fill="#26aca3" fill-rule="evenodd"/>
    <path id="Path_17693" data-name="Path 17693" d="M281.964,512.318h-2.61l.743-6.206h1.187Z" transform="translate(675.956 2156.771)" fill="#26aca3" fill-rule="evenodd"/>
  </g>
</svg>
