<svg xmlns="http://www.w3.org/2000/svg" width="40" height="40" viewBox="0 0 40 40">
  <g id="наблюдение" transform="translate(-894.375 -2638.305)">
    <path id="Path_17697" data-name="Path 17697" d="M217.74,522.194H255.6a1.075,1.075,0,0,0,1.07-1.069V483.266a1.08,1.08,0,0,0-1.07-1.072H217.74a1.077,1.077,0,0,0-1.07,1.072v37.859a1.072,1.072,0,0,0,1.07,1.069m1.845-1.952a.97.97,0,0,1-.966-.964v-34.17a.964.964,0,0,1,.966-.955h34.171a.961.961,0,0,1,.966.955v34.17a.967.967,0,0,1-.966.964Z" transform="translate(677.705 2156.111)" fill="#26aca3" fill-rule="evenodd"/>
    <path id="Path_17698" data-name="Path 17698" d="M228.052,503.2a3.115,3.115,0,0,1-3.106-3.106v-4.831a3.115,3.115,0,0,1,3.106-3.107h15.389a3.117,3.117,0,0,1,3.108,3.107v.466l6.092-2.988v9.683l-6.092-2.559v.23a3.117,3.117,0,0,1-3.108,3.106Z" transform="translate(676.997 2157.147)" fill="#26aca3"/>
    <path id="Path_17699" data-name="Path 17699" d="M235.671,505.252l2.581,0L224.3,516.931v-2.923Z" transform="translate(677.052 2156.027)" fill="#26aca3"/>
    <path id="Path_17700" data-name="Path 17700" d="M229.185,495.355c-1.425,0-2.182,6.708-2.182,5.259v-4.1a2.62,2.62,0,0,1,2.587-2.637l13.567.012c1.977.206,1.493.738-1.723.645Z" transform="translate(676.821 2157)" fill="#fff"/>
  </g>
</svg>
