<svg xmlns="http://www.w3.org/2000/svg" width="40" height="40" viewBox="0 0 40 40">
  <g id="еда" transform="translate(-304 -3744)">
    <path id="Path_17670" data-name="Path 17670" d="M385.08,522.177h37.864a1.074,1.074,0,0,0,1.068-1.074V483.249a1.074,1.074,0,0,0-1.068-1.072H385.08a1.074,1.074,0,0,0-1.068,1.072V521.1a1.075,1.075,0,0,0,1.068,1.074m1.846-1.951a.968.968,0,0,1-.963-.968V485.1a.965.965,0,0,1,.963-.964H421.1a.968.968,0,0,1,.966.964v34.161a.971.971,0,0,1-.966.968Z" transform="translate(-80.012 3261.823)" fill="#26aca3" fill-rule="evenodd"/>
    <path id="Path_17671" data-name="Path 17671" d="M421.472,490.41c0,2.105.177,5.752.008,7.887a21.188,21.188,0,0,0-.4,2.551c0,.948-.1,2.2-.023,2.8.119.929.437,1.824.495,2.525a20.578,20.578,0,0,1,0,3.936c-.181,1.845.122,2.221-1.147,2.221-1.049,0-.765-.483-.926-2.14a21.252,21.252,0,0,1,0-4.084c.022-.321.715-1.93.795-2.4a13.869,13.869,0,0,0-.161-3.673c-.223-.848-1.032-1.113-1.154-1.49a13.574,13.574,0,0,1-.075-3.7c.079-1.678-.274-3.846.871-4.211a8.138,8.138,0,0,1,1.716-.224" transform="translate(-82.984 3262.031)" fill="#26aca3" fill-rule="evenodd"/>
    <path id="Path_17672" data-name="Path 17672" d="M389.893,496.525v-.8c.1-1.519.168-3.283.294-4.761a.8.8,0,0,1,.135-.509c.179.1.11.28.105.482-.018,1.268.027,2.45.027,3.665,0,.368-.1,1.3.188,1.284s.245-.893.266-1.2c.08-1.179.08-2.4.08-3.611a.825.825,0,0,1,.16-.616,1.194,1.194,0,0,1,.107.642c.059,1.229.08,2.312.08,3.531,0,.461-.065,1.024.188,1.285.212-.085.169-.348.186-.535.107-1.117.109-2.4.109-3.559,0-.5-.1-1.066.133-1.365a1.088,1.088,0,0,1,.162.588c.058,1.258.066,2.439.106,3.638.016.45-.115,1.027.241,1.257a2.186,2.186,0,0,0,.213-1.257c.027-.956,0-1.885,0-2.862a4.021,4.021,0,0,1,.081-1.365,3.167,3.167,0,0,1,.187,1.5c.048,1.067.11,2.208.161,3.262a15.194,15.194,0,0,1,.08,1.579c-.056.842-.977.808-1.1,1.6-.018.124.039.358.027.643-.027.55-.162,1.1-.162,1.685a14.252,14.252,0,0,0,.242,3.343c.123.507.309.937.428,1.418a20.079,20.079,0,0,1,.133,5.189c-.039.657-.074,1.355-.348,1.525a2.279,2.279,0,0,1-1.39-.026c-.188-.161-.227-1.021-.268-1.525a20.31,20.31,0,0,1,0-5.056c.092-.477.263-.908.4-1.391a10.157,10.157,0,0,0,.134-3.344c-.047-.552-.179-1.091-.214-1.606a7.5,7.5,0,0,0,0-.909c-.2-.839-1.209-.613-1.177-1.818" transform="translate(-80.515 3262.027)" fill="#26aca3" fill-rule="evenodd"/>
    <path id="Path_17702" data-name="Path 17702" d="M404.8,513.114a11.352,11.352,0,1,1,11.352-11.352A11.364,11.364,0,0,1,404.8,513.114" transform="translate(-80.819 3262.031)" fill="#26aca3"/>
    <path id="Path_17724" data-name="Path 17724" d="M412.364,502.153a7.168,7.168,0,1,0-7.168,7.167A7.168,7.168,0,0,0,412.364,502.153Z" transform="translate(-81.21 3261.64)" fill="none" stroke="#fff" stroke-miterlimit="10" stroke-width="4"/>
  </g>
</svg>
