<svg xmlns="http://www.w3.org/2000/svg" width="40" height="40" viewBox="0 0 40 40">
  <g id="качество" transform="translate(-1176 -2368)">
    <path id="Path_17701" data-name="Path 17701" d="M93.007,522.21h37.865a1.073,1.073,0,0,0,1.068-1.072V483.275a1.071,1.071,0,0,0-1.068-1.065H93.007a1.069,1.069,0,0,0-1.066,1.065v37.862a1.07,1.07,0,0,0,1.066,1.072m1.851-1.952a.968.968,0,0,1-.969-.969V485.121a.968.968,0,0,1,.969-.962h34.166a.973.973,0,0,1,.969.962v34.168a.973.973,0,0,1-.969.969Z" transform="translate(1084.059 1885.79)" fill="#26aca3" fill-rule="evenodd"/>
    <path id="Path_17728" data-name="Path 17728" d="M113.109,489.006h.653c2.714.763,3.844,3.916,3.173,7.464,3.377.294,7.948-.607,8.445,2.565v.98a2.922,2.922,0,0,1-.653,1.539,3.575,3.575,0,0,1-.7,3.873,3.933,3.933,0,0,1-1.214,3.965,2.915,2.915,0,0,1-2.566,3.5h-5.5a30.724,30.724,0,0,1-5.086-.887,7.085,7.085,0,0,0-1.586-.372c-.2.044-.284.37-.514.607a2.619,2.619,0,0,1-1.259.652h-2.939a2.412,2.412,0,0,1-1.867-1.912V498.337a2.51,2.51,0,0,1,1.074-1.54c1.079-.656,4.259-.434,4.9.234a5.565,5.565,0,0,0,3.452-3.92,19.638,19.638,0,0,0,.281-2.193,2.371,2.371,0,0,1,1.912-1.912m2.193,3.358c-.321-.78-1.025-1.826-1.96-1.866-.76-.031-.642,1.193-.746,1.96a7.128,7.128,0,0,1-3.033,5.132c-.425.291-1.877.766-2.054,1.213a10.781,10.781,0,0,0-.046,2.705v5.553a9.361,9.361,0,0,0,.093,2.705c.3.51,2.323.754,2.893.886a28.838,28.838,0,0,0,6.812.747c1.352,0,2.889.228,3.546-.233.436-.306.829-1.476.279-1.867-.354-.252-2.052.126-2.052-.514s2.185-.232,2.845-.605a2.348,2.348,0,0,0,.747-2.285c-.161-.4-.925-.463-1.4-.467-.686-.006-1.5.1-1.446-.42.058-.566,2.415-.283,2.8-.421.807-.287,1.487-2.171.467-2.752-.628-.358-2.6.212-2.52-.561.047-.465.939-.32,1.538-.326a2.366,2.366,0,0,0,1.541-.374,1.968,1.968,0,0,0,.139-1.82c-.519-.932-2.669-.685-4.2-.746-1.752-.069-3.235-.045-4.619-.046.528-1.394,1.1-3.832.373-5.6m-12.271,6.018a12.258,12.258,0,0,0-.047,3.219v6.533c0,.861-.157,2.727.234,3.078a5.617,5.617,0,0,0,3.266,0c.432-.39.233-2.1.233-3.127V501.37c0-.829.219-2.72-.187-3.174-.316-.352-2.484-.333-2.986-.187a1,1,0,0,0-.514.373" transform="translate(1083.243 1886.034)" fill="#26aca3" fill-rule="evenodd"/>
    <path id="Path_17729" data-name="Path 17729" d="M104.83,510.277c1.91-.377,1.584,2.743-.187,2.145a1.14,1.14,0,0,1,.187-2.145m-.139,1.119c.023.233.282.4.605.28.548-.661-.675-.967-.605-.28" transform="translate(1083.031 1884.219)" fill="#26aca3" fill-rule="evenodd"/>
  </g>
</svg>
