<svg xmlns="http://www.w3.org/2000/svg" width="40" height="40" viewBox="0 0 40 40">
  <g id="приложение" transform="translate(-1376 -2840)">
    <path id="Path_17736" data-name="Path 17736" d="M259.979,522.2h37.863a1.072,1.072,0,0,0,1.067-1.072V483.269a1.075,1.075,0,0,0-1.067-1.066H259.979a1.078,1.078,0,0,0-1.07,1.066v37.862a1.075,1.075,0,0,0,1.07,1.072m1.848-1.952a.965.965,0,0,1-.964-.962V485.118a.968.968,0,0,1,.964-.966H296a.97.97,0,0,1,.963.966v34.171a.967.967,0,0,1-.963.962Z" transform="translate(1117.091 2357.797)" fill="#26aca3" fill-rule="evenodd"/>
    <path id="Path_17737" data-name="Path 17737" d="M9.7,0H2.424A2.427,2.427,0,0,0,0,2.424V9.7a2.427,2.427,0,0,0,2.424,2.424H9.7A2.427,2.427,0,0,0,12.121,9.7V2.424A2.427,2.427,0,0,0,9.7,0Z" transform="translate(1382.667 2846.667)" fill="#26aca3"/>
    <path id="Path_17742" data-name="Path 17742" d="M7.332,0h-5.5A1.835,1.835,0,0,0,0,1.833v5.5A1.835,1.835,0,0,0,1.833,9.165h5.5A1.835,1.835,0,0,0,9.165,7.332v-5.5A1.835,1.835,0,0,0,7.332,0Z" transform="translate(1384.145 2848.145)" fill="#fff"/>
    <path id="Path_17738" data-name="Path 17738" d="M265.7,0h-7.273A2.427,2.427,0,0,0,256,2.424V9.7a2.427,2.427,0,0,0,2.424,2.424H265.7A2.427,2.427,0,0,0,268.121,9.7V2.424A2.427,2.427,0,0,0,265.7,0Z" transform="translate(1141.212 2846.667)" fill="#26aca3"/>
    <path id="Path_17743" data-name="Path 17743" d="M263.336,0h-5.5A1.836,1.836,0,0,0,256,1.834v5.5a1.836,1.836,0,0,0,1.834,1.834h5.5a1.836,1.836,0,0,0,1.834-1.834v-5.5A1.836,1.836,0,0,0,263.336,0Z" transform="translate(1142.688 2848.143)" fill="#fff"/>
    <path id="Path_17739" data-name="Path 17739" d="M9.7,256H2.424A2.427,2.427,0,0,0,0,258.424V265.7a2.427,2.427,0,0,0,2.424,2.424H9.7a2.427,2.427,0,0,0,2.424-2.424v-7.273A2.427,2.427,0,0,0,9.7,256Z" transform="translate(1382.667 2605.212)" fill="#26aca3"/>
    <path id="Path_17741" data-name="Path 17741" d="M7.332,256h-5.5A1.835,1.835,0,0,0,0,257.833v5.5a1.835,1.835,0,0,0,1.833,1.833h5.5a1.835,1.835,0,0,0,1.833-1.833v-5.5A1.835,1.835,0,0,0,7.332,256Z" transform="translate(1384.145 2606.69)" fill="#fff"/>
    <path id="Path_17740" data-name="Path 17740" d="M305.333,301.09h-1.818v-1.818a.606.606,0,0,0-.606-.606H301.7a.606.606,0,0,0-.606.606v1.818h-1.818a.606.606,0,0,0-.606.606v1.212a.606.606,0,0,0,.606.606h1.818v1.818a.606.606,0,0,0,.606.606h1.212a.606.606,0,0,0,.606-.606v-1.818h1.818a.606.606,0,0,0,.606-.606V301.7A.606.606,0,0,0,305.333,301.09Z" transform="translate(1100.97 2564.97)" fill="#26aca3"/>
  </g>
</svg>
