<svg id="BPP_logo_CS3" xmlns="http://www.w3.org/2000/svg" width="320" height="57.313" viewBox="0 0 320 57.313">
  <g id="Group_772" data-name="Group 772" transform="translate(174.382 0)">
    <path id="Path_14581" data-name="Path 14581" d="M92.584,12.692h2.3a7.462,7.462,0,0,1,2.3.288,5.133,5.133,0,0,1,1.654.863,3.514,3.514,0,0,1,1.007,1.294,3.919,3.919,0,0,1,.36,1.582,3.692,3.692,0,0,1-.431,1.8,3.555,3.555,0,0,1-1.151,1.366,6.464,6.464,0,0,1-1.726.863,7.763,7.763,0,0,1-2.3.288H90.571V6.867H99.2V8.521H92.512v4.171Zm5.609,4.1a2.3,2.3,0,0,0-.216-1.007,2.248,2.248,0,0,0-.647-.791,3.758,3.758,0,0,0-1.079-.5,5.152,5.152,0,0,0-1.582-.144H92.512v5.106h2.229a4.2,4.2,0,0,0,2.517-.647A2.452,2.452,0,0,0,98.193,16.791Z" transform="translate(-90.571 -6.652)" fill="#0a83c6"/>
    <path id="Path_14582" data-name="Path 14582" d="M99.092,6.867V17.582l5.9-10.715h1.87V21.034h-1.942V10.319l-5.9,10.715h-1.87V6.867Z" transform="translate(-83.991 -6.652)" fill="#0a83c6"/>
    <path id="Path_14583" data-name="Path 14583" d="M103.874,18.84a13.148,13.148,0,0,0,1.8.575,11.13,11.13,0,0,0,2.373.216,3.631,3.631,0,0,0,2.517-.719,2.509,2.509,0,0,0,.863-2.013,1.8,1.8,0,0,0-.216-.935,2.04,2.04,0,0,0-.647-.719,2.435,2.435,0,0,0-1.079-.431,8.086,8.086,0,0,0-1.438-.144h-3.02V13.088h2.948a6.333,6.333,0,0,0,1.222-.144,2.229,2.229,0,0,0,.935-.431,2.04,2.04,0,0,0,.647-.719,2.4,2.4,0,0,0,.216-1.079,3.608,3.608,0,0,0-.144-.863,1.216,1.216,0,0,0-.5-.719,2.487,2.487,0,0,0-.863-.5,4.04,4.04,0,0,0-1.438-.216,17.7,17.7,0,0,0-1.87.144,7.88,7.88,0,0,0-1.87.431V7.335a14.727,14.727,0,0,1,1.726-.36,19.133,19.133,0,0,1,2.157-.144,5.65,5.65,0,0,1,3.6.935,3.2,3.2,0,0,1,1.151,2.661,3.68,3.68,0,0,1-.575,2.013,3.355,3.355,0,0,1-1.8,1.222,6.326,6.326,0,0,1,1.079.36,3.178,3.178,0,0,1,1.582,1.582,3.484,3.484,0,0,1,.216,1.294,3.693,3.693,0,0,1-.431,1.8,3.555,3.555,0,0,1-1.151,1.366,5.971,5.971,0,0,1-1.8.863,7.763,7.763,0,0,1-2.3.288,13.1,13.1,0,0,1-3.955-.575v-1.8Z" transform="translate(-77.339 -6.688)" fill="#0a83c6"/>
    <path id="Path_14584" data-name="Path 14584" d="M120.521,21.034H118.58V14.562h-6.04v6.472H110.6V6.867h1.942v5.969h6.04V6.867h1.942Z" transform="translate(-70.544 -6.652)" fill="#0a83c6"/>
    <path id="Path_14585" data-name="Path 14585" d="M125.987,21.034h-8.126V6.867h8.126V8.521H119.8v4.387h5.969v1.654H119.8v4.89h6.184Z" transform="translate(-63.281 -6.652)" fill="#0a83c6"/>
    <path id="Path_14586" data-name="Path 14586" d="M133.933,20.566a8.922,8.922,0,0,1-3.6.719,5.917,5.917,0,0,1-4.674-1.8,7.727,7.727,0,0,1-1.654-5.321,10.366,10.366,0,0,1,.431-3.092,5.51,5.51,0,0,1,1.294-2.3,5.941,5.941,0,0,1,2.014-1.51,6.277,6.277,0,0,1,2.661-.5,15.185,15.185,0,0,1,1.87.144,11.116,11.116,0,0,1,1.654.5v1.87a7.339,7.339,0,0,0-1.582-.647,7.245,7.245,0,0,0-1.8-.216,4.711,4.711,0,0,0-1.8.36,2.877,2.877,0,0,0-1.366,1.079,6.464,6.464,0,0,0-.863,1.726,7.763,7.763,0,0,0-.288,2.3,6.407,6.407,0,0,0,1.151,4.171,3.95,3.95,0,0,0,3.308,1.366,7.244,7.244,0,0,0,1.8-.216,15.068,15.068,0,0,0,1.654-.575v1.942Z" transform="translate(-57.133 -6.76)" fill="#0a83c6"/>
    <path id="Path_14587" data-name="Path 14587" d="M138.283,12.333h-6.544v-1.8h6.544Z" transform="translate(-49.402 -2.984)" fill="#0a83c6"/>
    <path id="Path_14588" data-name="Path 14588" d="M147.452,21.034H145.51V8.593h-5.9v12.44h-1.942V6.867h9.78V21.034Z" transform="translate(-43.47 -6.652)" fill="#0a83c6"/>
    <path id="Path_14589" data-name="Path 14589" d="M156.009,21.034h-2.157l-1.007-3.092h-5.969l-1.007,3.092h-2.013L148.6,6.867h2.661Zm-3.667-4.818L149.9,8.665l-2.445,7.551Z" transform="translate(-37.285 -6.652)" fill="#0a83c6"/>
    <path id="Path_14590" data-name="Path 14590" d="M160.9,11.182a4.944,4.944,0,0,1-.36,1.726,4.283,4.283,0,0,1-1.007,1.51,5.431,5.431,0,0,1-1.8,1.079,6.967,6.967,0,0,1-2.589.431h-1.8v5.106h-1.942V6.867h4.027a9.1,9.1,0,0,1,2.013.216,6.224,6.224,0,0,1,1.726.719,3.555,3.555,0,0,1,1.151,1.366A3.68,3.68,0,0,1,160.9,11.182Zm-2.086.072a2.41,2.41,0,0,0-.935-2.085,3.753,3.753,0,0,0-2.517-.719h-2.013v5.825h1.8a4.182,4.182,0,0,0,2.661-.719A2.6,2.6,0,0,0,158.813,11.254Z" transform="translate(-29.735 -6.652)" fill="#0a83c6"/>
    <path id="Path_14591" data-name="Path 14591" d="M167.91,21.034h-2.445l-5.321-6.975v6.975H158.2V6.867h1.942v6.544l5.249-6.544h2.3l-5.681,6.76Z" transform="translate(-22.939 -6.652)" fill="#0a83c6"/>
  </g>
  <g id="Group_773" data-name="Group 773" transform="translate(0 0.216)">
    <path id="Path_14592" data-name="Path 14592" d="M38.328,18.625c4.674,0,8.126,1.151,10.355,3.524,2.517,2.733,3.811,7.119,3.811,13.231S51.2,45.951,48.683,48.611C46.454,50.984,43,52.135,38.328,52.135S30.2,50.984,27.973,48.611c-2.517-2.733-3.811-7.119-3.811-13.231s1.294-10.5,3.811-13.231C30.2,19.847,33.654,18.625,38.328,18.625ZM44.44,35.452c0-4.243-.5-7.263-1.366-9.133a4.855,4.855,0,0,0-4.674-2.8,4.789,4.789,0,0,0-4.674,2.8c-.935,1.87-1.366,4.89-1.366,9.133s.431,7.263,1.366,9.133a4.855,4.855,0,0,0,4.674,2.8,4.789,4.789,0,0,0,4.674-2.8C43.937,42.715,44.44,39.622,44.44,35.452Z" transform="translate(17.402 4.89)" fill="#0a83c6"/>
    <path id="Path_14593" data-name="Path 14593" d="M58.751,18.948H48.324l-9.348,32.36H45.3l2.013-7.263,1.366-4.89L52.566,25.42l3.739,13.735,1.294,4.89,2.013,7.263H68.1Z" transform="translate(32.216 5.213)" fill="#0a83c6"/>
    <path id="Path_14594" data-name="Path 14594" d="M94.993,22.184c-2.229-2.373-5.681-3.524-10.355-3.524s-8.126,1.151-10.355,3.524c-2.157,2.3-3.38,5.825-3.739,10.571h-6.9V19.236H55.587V51.6H63.64V37.573h6.831c.288,5.034,1.51,8.7,3.739,11.074s5.681,3.524,10.355,3.524,8.126-1.151,10.355-3.524c2.517-2.733,3.811-7.119,3.811-13.231C98.8,29.3,97.51,24.845,94.993,22.184ZM89.384,44.548a4.855,4.855,0,0,1-4.674,2.8,4.789,4.789,0,0,1-4.674-2.8c-.935-1.87-1.366-4.962-1.366-9.133,0-4.243.431-7.263,1.366-9.133a4.855,4.855,0,0,1,4.674-2.8,4.789,4.789,0,0,1,4.674,2.8c.935,1.87,1.366,4.89,1.366,9.133C90.751,39.587,90.319,42.679,89.384,44.548Z" transform="translate(48.827 4.926)" fill="#0a83c6"/>
    <path id="Path_14595" data-name="Path 14595" d="M101.9,50.049a14.47,14.47,0,0,1-7.766,1.942c-5.249,0-9.061-1.222-11.362-3.6-2.517-2.589-3.811-6.975-3.811-13.088,0-6.184,1.294-10.571,3.811-13.088C85.142,19.847,88.881,18.7,94.13,18.7a19.547,19.547,0,0,1,7.119,1.294v5.178a16.671,16.671,0,0,0-7.119-1.726,5.919,5.919,0,0,0-5.465,2.8c-1.079,1.87-1.654,4.89-1.654,8.989s.575,7.119,1.654,8.989a5.844,5.844,0,0,0,5.465,2.8,15.026,15.026,0,0,0,7.766-2.445Z" transform="translate(72.198 4.962)" fill="#0a83c6"/>
    <path id="Path_14596" data-name="Path 14596" d="M99.811,23.8H92.117v-4.89H115.56V23.8h-7.694V51.344H99.811V23.8Z" transform="translate(85.357 5.178)" fill="#0a83c6"/>
    <path id="Path_14597" data-name="Path 14597" d="M3.38,6.867V63.389h8.054V16.216H31.64V63.389h7.982V6.867Z" transform="translate(-3.38 -6.867)" fill="#0a83c6"/>
    <path id="Path_14598" data-name="Path 14598" d="M105.816,51.308V18.948H118.04c4.458,0,7.623.863,9.492,2.661,1.582,1.51,2.445,3.739,2.445,6.76,0,6.256-4.315,9.42-12.944,9.42H113.87V51.38h-8.054Zm8.126-27.9v9.852h3.164a4.509,4.509,0,0,0,3.955-1.726A5.151,5.151,0,0,0,122,28.369c0-3.308-1.654-4.962-4.89-4.962h-3.164Z" transform="translate(99.056 5.213)" fill="#0a83c6"/>
    <path id="Path_14599" data-name="Path 14599" d="M133.285,18.625c4.674,0,8.126,1.151,10.355,3.524,2.589,2.733,3.811,7.119,3.811,13.231s-1.294,10.571-3.811,13.231c-2.229,2.373-5.681,3.524-10.355,3.524s-8.126-1.151-10.355-3.524c-2.517-2.733-3.811-7.119-3.811-13.231s1.294-10.5,3.811-13.231C125.231,19.847,128.683,18.625,133.285,18.625ZM139.4,35.452c0-4.243-.5-7.263-1.438-9.133a4.855,4.855,0,0,0-4.674-2.8,4.789,4.789,0,0,0-4.674,2.8c-.935,1.87-1.366,4.89-1.366,9.133s.431,7.263,1.366,9.133a4.855,4.855,0,0,0,4.674,2.8,4.789,4.789,0,0,0,4.674-2.8C138.966,42.715,139.4,39.622,139.4,35.452Z" transform="translate(112.36 4.89)" fill="#0a83c6"/>
    <path id="Path_14600" data-name="Path 14600" d="M135.407,51.308V18.948h12.081c7.551,0,11.362,2.876,11.362,8.485,0,3.667-2.085,6.112-6.256,7.263a11.019,11.019,0,0,1,4.674,2.013,6.793,6.793,0,0,1,2.8,5.681c0,2.8-.791,4.89-2.445,6.256-2.085,1.8-5.609,2.661-10.643,2.661Zm11.218-18.84a3.338,3.338,0,0,0,3.092-1.726,5.83,5.83,0,0,0,.791-2.948c0-2.948-1.366-4.387-4.1-4.387h-2.948v9.133h3.164Zm.216,14.382c3.236,0,4.89-1.582,4.89-4.818,0-3.38-1.726-5.106-5.106-5.106h-3.164v9.924h3.38Z" transform="translate(128.647 5.213)" fill="#0a83c6"/>
    <path id="Path_14601" data-name="Path 14601" d="M163.38,18.625c4.674,0,8.126,1.151,10.355,3.524,2.517,2.733,3.811,7.119,3.811,13.231s-1.294,10.571-3.811,13.231c-2.229,2.373-5.681,3.524-10.355,3.524s-8.126-1.151-10.355-3.524c-2.517-2.733-3.811-7.119-3.811-13.231s1.294-10.5,3.811-13.231C155.254,19.847,158.706,18.625,163.38,18.625Zm6.04,16.827c0-4.243-.5-7.263-1.366-9.133a4.855,4.855,0,0,0-4.674-2.8,4.789,4.789,0,0,0-4.674,2.8c-.935,1.87-1.366,4.89-1.366,9.133s.431,7.263,1.366,9.133a4.855,4.855,0,0,0,4.674,2.8,4.789,4.789,0,0,0,4.674-2.8C168.989,42.715,169.42,39.622,169.42,35.452Z" transform="translate(142.454 4.89)" fill="#0a83c6"/>
  </g>
  <rect id="Rectangle_799" data-name="Rectangle 799" width="14.166" height="14.166" transform="translate(113.402 0.216)" fill="#26aca3"/>
  <rect id="Rectangle_800" data-name="Rectangle 800" width="14.166" height="14.166" transform="translate(143.82 0.216)" fill="#26aca3"/>
  <rect id="Rectangle_801" data-name="Rectangle 801" width="14.166" height="14.166" transform="translate(82.984 0.216)" fill="#26aca3"/>
  <rect id="Rectangle_802" data-name="Rectangle 802" width="14.166" height="14.166" transform="translate(52.566 0.216)" fill="#26aca3"/>
</svg>
