<svg xmlns="http://www.w3.org/2000/svg" width="40" height="40" viewBox="0 0 40 40">
  <g id="интернет" transform="translate(-853.305 -2638.305)">
    <path id="Path_17674" data-name="Path 17674" d="M176.67,522.194h37.862a1.071,1.071,0,0,0,1.068-1.072V483.266a1.077,1.077,0,0,0-1.068-1.072H176.67a1.08,1.08,0,0,0-1.07,1.072v37.856a1.074,1.074,0,0,0,1.07,1.072m1.848-1.952a.966.966,0,0,1-.968-.964V485.112a.963.963,0,0,1,.968-.959H212.69a.962.962,0,0,1,.963.959v34.166a.965.965,0,0,1-.963.964Z" transform="translate(677.705 2156.111)" fill="#26aca3" fill-rule="evenodd"/>
    <path id="Path_17673" data-name="Path 17673" d="M195.186,510.935a10.618,10.618,0,0,1-6.966,2.142c-1.891.038-5.2-1.421-5.24-3.241a2,2,0,0,1-.181-.125,2.742,2.742,0,0,1-1-2.233,6.067,6.067,0,0,1,.612-2.685,5.921,5.921,0,0,1,.816-1.3c.607-.737,1.787-.572,3.023-.391a4.127,4.127,0,0,0,2.5-.06,15.707,15.707,0,0,0,3.675-3.878c1.341-1.939,2.232-4.485,1.374-5.454-2.221-2.779-1.371-4.882.145-5.881a2.293,2.293,0,0,1,1.337-.319,4.878,4.878,0,0,1,2.038.614,6.455,6.455,0,0,1,1.769,1.861,5.529,5.529,0,0,1,.6,2.621c-.137,2.873-2.5,5.7-4.974,8.814-3.2,4.027-5.472,8.011-10.786,8.55.051,1.538,2.915,2.53,4.287,2.556a8.8,8.8,0,0,0,3.433-.42,8.935,8.935,0,0,0,3.628-2.546" transform="translate(677.339 2156.632)" fill="#26aca3" fill-rule="evenodd"/>
    <path id="Path_17675" data-name="Path 17675" d="M207.439,516.116a11.2,11.2,0,0,1-4.511.84c-4.022,0-7.282-2.057-7.282-6.371,0-4.91,4.145-9.025,9.63-9.025,4.115,0,6.369,2.233,6.369,5.331,0,4.18-1.98,6.393-4.693,6.393-1.127,0-1.889-.574-1.766-1.769h-.093a4.145,4.145,0,0,1-3.322,1.769,2.26,2.26,0,0,1-2.468-2.433c0-2.454,2.224-5.6,6.522-5.6a7.443,7.443,0,0,1,2.132.309l-1.22,4.466c-.425,1.593-.152,2.325.672,2.325,1.432,0,2.863-2.036,2.863-5.044,0-3.032-1.645-4.889-5.21-4.889a8.056,8.056,0,0,0-8.046,8.184c0,3.607,2.378,5.442,6.279,5.442a9.747,9.747,0,0,0,3.748-.707Zm-1.372-9.8a2.793,2.793,0,0,0-.853-.089c-2.316,0-4.146,2.412-4.146,4.6,0,.994.519,1.392,1.221,1.392,1.247,0,2.528-1.392,2.9-2.674Z" transform="translate(676.155 2155.431)" fill="#26aca3"/>
    <path id="Path_17726" data-name="Path 17726" d="M197.472,488.356a4.441,4.441,0,0,1,2.616,4.614,5.141,5.141,0,0,1-1.263,2.7,26.2,26.2,0,0,0,.47-3.268,4.552,4.552,0,0,0-1.823-4.044" transform="translate(675.999 2156.56)" fill="#fff"/>
  </g>
</svg>
