<svg xmlns="http://www.w3.org/2000/svg" width="40" height="40" viewBox="0 0 40 40">
  <g id="климат" transform="translate(-978.349 -2638.305)">
    <path id="Path_17678" data-name="Path 17678" d="M301.714,522.194h37.86a1.074,1.074,0,0,0,1.071-1.072V483.266a1.076,1.076,0,0,0-1.071-1.072h-37.86a1.076,1.076,0,0,0-1.07,1.072v37.857a1.074,1.074,0,0,0,1.07,1.072m1.848-1.948a.971.971,0,0,1-.966-.971V485.113a.968.968,0,0,1,.966-.964h34.161a.969.969,0,0,1,.969.964v34.162a.972.972,0,0,1-.969.971Z" transform="translate(677.705 2156.111)" fill="#26aca3" fill-rule="evenodd"/>
    <path id="Path_17679" data-name="Path 17679" d="M320.351,506.021s-3.3,8.051-2.439,9.021c0,0-4.81-1.944-5.323-4.58-.57-2.918,5.976-6.9,5.976-6.9a4.322,4.322,0,0,0,1.787,2.458" transform="translate(676.662 2155.609)" fill="#26aca3"/>
    <path id="Path_17680" data-name="Path 17680" d="M325.871,504.772s8.052,3.3,9.023,2.438c0,0-1.945,4.811-4.581,5.326-2.917.569-6.9-5.975-6.9-5.975a4.326,4.326,0,0,0,2.457-1.789" transform="translate(675.731 2155.506)" fill="#26aca3"/>
    <path id="Path_17681" data-name="Path 17681" d="M324.46,498.83s3.3-8.05,2.439-9.019c0,0,4.81,1.944,5.323,4.58.57,2.918-5.977,6.9-5.977,6.9a4.322,4.322,0,0,0-1.786-2.459" transform="translate(675.641 2156.788)" fill="#26aca3"/>
    <path id="Path_17682" data-name="Path 17682" d="M318.594,500.423s-8.051-3.3-9.021-2.438c0,0,1.944-4.809,4.58-5.325,2.917-.569,6.9,5.976,6.9,5.976a4.338,4.338,0,0,0-2.459,1.787" transform="translate(676.917 2156.546)" fill="#26aca3"/>
    <path id="Path_17683" data-name="Path 17683" d="M321.416,515.853a14.366,14.366,0,1,1,14.367-14.366,14.384,14.384,0,0,1-14.367,14.366m0-27.976a13.61,13.61,0,1,0,13.61,13.609,13.625,13.625,0,0,0-13.61-13.609" transform="translate(677.133 2157.018)" fill="#26aca3"/>
    <path id="Path_17684" data-name="Path 17684" d="M322.842,501.432l.675-1.578a2.944,2.944,0,0,0-.786-.115,2.6,2.6,0,0,0-.339.036Z" transform="translate(675.819 2155.937)" fill="#26aca3"/>
    <path id="Path_17685" data-name="Path 17685" d="M324.313,503.109l1.443.647a3.049,3.049,0,0,0,.118-.791,2.787,2.787,0,0,0-.039-.339Z" transform="translate(675.654 2155.689)" fill="#26aca3"/>
    <path id="Path_17686" data-name="Path 17686" d="M324.313,500.133l.035.02-.035-.02" transform="translate(675.654 2155.903)" fill="#26aca3"/>
    <path id="Path_17687" data-name="Path 17687" d="M321.1,502.774l-1.477-.641a2.9,2.9,0,0,0-.121.791,3.014,3.014,0,0,0,.036.33Z" transform="translate(676.066 2155.732)" fill="#26aca3"/>
    <path id="Path_17688" data-name="Path 17688" d="M322.583,504.314l-.694,1.656a2.968,2.968,0,0,0,.8.121,2.9,2.9,0,0,0,.333-.034Z" transform="translate(675.862 2155.545)" fill="#26aca3"/>
  </g>
</svg>
