<svg xmlns="http://www.w3.org/2000/svg" width="40" height="40" viewBox="0 0 40 40">
  <g id="паркинг" transform="translate(-811.626 -2638.32)">
    <path id="парковка" d="M146.781,514.089V490.9h9.188a24.23,24.23,0,0,1,3.7.213,7.733,7.733,0,0,1,3.007,1.078,5.844,5.844,0,0,1,1.954,2.247,6.694,6.694,0,0,1,.738,3.153,6.926,6.926,0,0,1-1.975,4.993q-1.98,2.039-7.142,2.037h-6.242v9.463Zm3.233-12.175H156.3c2.083,0,3.56-.371,4.441-1.111a3.866,3.866,0,0,0,1.307-3.118,4.071,4.071,0,0,0-.771-2.491,3.633,3.633,0,0,0-2.036-1.368,14.786,14.786,0,0,0-3-.2h-6.221Z" transform="translate(676.606 2156.372)" fill="#26aca3"/>
    <path id="Path_17725" data-name="Path 17725" d="M134.987,522.209h37.865a1.072,1.072,0,0,0,1.068-1.072V483.275a1.071,1.071,0,0,0-1.068-1.066H134.987a1.068,1.068,0,0,0-1.066,1.066v37.862a1.069,1.069,0,0,0,1.066,1.072m1.851-1.952a.967.967,0,0,1-.97-.969V485.12a.968.968,0,0,1,.97-.962H171a.973.973,0,0,1,.969.962v34.168a.972.972,0,0,1-.969.969Z" transform="translate(677.705 2156.111)" fill="#26aca3" fill-rule="evenodd"/>
  </g>
</svg>
