<svg xmlns="http://www.w3.org/2000/svg" width="40" height="40" viewBox="0 0 40 40">
  <g id="клининг" transform="translate(-1120 -3048)">
    <path id="Path_17677" data-name="Path 17677" d="M343.012,522.211h37.864a1.072,1.072,0,0,0,1.071-1.072V483.28a1.074,1.074,0,0,0-1.071-1.069H343.012a1.07,1.07,0,0,0-1.065,1.069v37.858a1.069,1.069,0,0,0,1.065,1.072m1.848-1.952a.97.97,0,0,1-.969-.968V485.129a.968.968,0,0,1,.969-.962h34.17a.966.966,0,0,1,.967.962V519.29a.967.967,0,0,1-.967.968Z" transform="translate(778.053 2565.789)" fill="#26aca3" fill-rule="evenodd"/>
    <path id="Path_17703" data-name="Path 17703" d="M355.017,511.427H355l-4.416-.223a.528.528,0,0,1-.5-.478c-.027-.3-.612-7.278,4.348-9.384a13.669,13.669,0,0,1,11.6.839c2.824,1.73,5.825,5.154,5.828,6.783a1.931,1.931,0,0,1-.569,1.429c-.709.707-2.912,1.034-5.241,1.034a.526.526,0,1,1,0-1.053c1.238,0,3.862-.1,4.491-.723a.927.927,0,0,0,.26-.688c0-1.163-2.707-4.281-5.323-5.883a12.626,12.626,0,0,0-10.624-.767c-3.59,1.522-3.767,6.342-3.731,7.856l3.928.206a.526.526,0,0,1-.022,1.053" transform="translate(777.362 2565.688)" fill="#26aca3"/>
    <path id="Path_17704" data-name="Path 17704" d="M361.062,514.032a4.827,4.827,0,1,1,4.56-4.824,4.7,4.7,0,0,1-4.56,4.824m0-8.573a3.758,3.758,0,1,0,3.551,3.75,3.662,3.662,0,0,0-3.551-3.75" transform="translate(776.81 2565.349)" fill="#26aca3"/>
    <path id="Path_17705" data-name="Path 17705" d="M362.8,491.857s-.014-.692.467-.673,13.607,16.226,13.607,16.226l3.961-.57-5.862,5.764,1.234-4.491Z" transform="translate(776.272 2566.477)" fill="#26aca3"/>
    <path id="Path_17706" data-name="Path 17706" d="M361.974,491.884a.492.492,0,0,1-.208-.05.547.547,0,0,1-.233-.7l.422-.971a.475.475,0,0,1,.652-.254.547.547,0,0,1,.233.7l-.422.97a.49.49,0,0,1-.444.306" transform="translate(776.384 2566.591)" fill="#26aca3"/>
    <path id="Path_17707" data-name="Path 17707" d="M360.551,491.814a.449.449,0,0,1-.214-.006.545.545,0,0,1-.375-.637l.21-1.038a.472.472,0,0,1,.583-.384.546.546,0,0,1,.378.637l-.211,1.039a.486.486,0,0,1-.37.39" transform="translate(776.515 2566.601)" fill="#26aca3"/>
    <path id="Path_17708" data-name="Path 17708" d="M359.323,491.768a.436.436,0,0,1-.2.059.551.551,0,0,1-.545-.5l-.1-1.054a.475.475,0,0,1,.445-.539.545.545,0,0,1,.545.5l.1,1.056a.488.488,0,0,1-.244.479" transform="translate(776.641 2566.601)" fill="#26aca3"/>
    <path id="Path_17709" data-name="Path 17709" d="M357.792,492.2l-.04.019a.521.521,0,0,1-.643-.338l-.364-1.012a.513.513,0,0,1,.286-.656.521.521,0,0,1,.64.34l.365,1.008a.506.506,0,0,1-.244.637" transform="translate(776.792 2566.562)" fill="#26aca3"/>
    <path id="Path_17710" data-name="Path 17710" d="M356.249,492.835a.5.5,0,0,1-.575-.208l-.594-.885a.529.529,0,0,1,.1-.725.484.484,0,0,1,.69.145l.6.886a.538.538,0,0,1-.1.727.432.432,0,0,1-.117.06" transform="translate(776.94 2566.499)" fill="#26aca3"/>
    <path id="Path_17711" data-name="Path 17711" d="M354.685,493.768a.481.481,0,0,1-.444-.215l-.6-.868a.554.554,0,0,1,.1-.737.473.473,0,0,1,.688.116l.6.866a.552.552,0,0,1-.1.737.455.455,0,0,1-.241.1" transform="translate(777.063 2566.421)" fill="#26aca3"/>
    <path id="Path_17712" data-name="Path 17712" d="M353.209,495.078a.468.468,0,0,1-.353-.161l-.691-.775a.556.556,0,0,1,.014-.745.463.463,0,0,1,.691.016l.692.772a.558.558,0,0,1-.013.746.464.464,0,0,1-.339.146" transform="translate(777.192 2566.301)" fill="#26aca3"/>
    <path id="Path_17713" data-name="Path 17713" d="M352.279,496.306a.453.453,0,0,1-.27-.088l-.828-.594a.554.554,0,0,1-.139-.732.469.469,0,0,1,.68-.147l.829.6a.552.552,0,0,1,.135.73.481.481,0,0,1-.408.234" transform="translate(777.283 2566.181)" fill="#26aca3"/>
    <path id="Path_17714" data-name="Path 17714" d="M351.352,497.514a.436.436,0,0,1-.225-.062l-.883-.5a.547.547,0,0,1-.206-.711.475.475,0,0,1,.661-.223l.882.5a.543.543,0,0,1,.206.708.486.486,0,0,1-.435.284" transform="translate(777.367 2566.069)" fill="#26aca3"/>
    <path id="Path_17715" data-name="Path 17715" d="M350.447,498.919a.465.465,0,0,1-.168-.033l-.934-.367a.535.535,0,0,1-.294-.671.479.479,0,0,1,.625-.318l.937.366a.536.536,0,0,1,.294.675.487.487,0,0,1-.458.348" transform="translate(777.449 2565.938)" fill="#26aca3"/>
    <path id="Path_17716" data-name="Path 17716" d="M349.718,500.478a.431.431,0,0,1-.167-.032l-.937-.365a.538.538,0,0,1-.291-.676.478.478,0,0,1,.625-.315l.937.365a.537.537,0,0,1,.291.676.486.486,0,0,1-.458.347" transform="translate(777.511 2565.804)" fill="#26aca3"/>
    <path id="Path_17717" data-name="Path 17717" d="M349.065,502.189a.467.467,0,0,1-.169-.033l-.934-.367a.538.538,0,0,1-.294-.675.476.476,0,0,1,.625-.315l.938.366a.537.537,0,0,1,.294.672.5.5,0,0,1-.461.351" transform="translate(777.567 2565.658)" fill="#26aca3"/>
    <path id="Path_17718" data-name="Path 17718" d="M348.432,503.763a.408.408,0,0,1-.165-.031l-.935-.367a.536.536,0,0,1-.295-.675.479.479,0,0,1,.626-.315l.936.367a.54.54,0,0,1,.295.676.49.49,0,0,1-.462.345" transform="translate(777.621 2565.524)" fill="#26aca3"/>
    <path id="Path_17719" data-name="Path 17719" d="M347.921,505.476a.467.467,0,0,1-.166-.032l-.936-.365a.54.54,0,0,1-.294-.675.481.481,0,0,1,.628-.318l.937.365a.546.546,0,0,1,.293.678.5.5,0,0,1-.462.348" transform="translate(777.665 2565.378)" fill="#26aca3"/>
    <path id="Path_17720" data-name="Path 17720" d="M346.96,507.252a.5.5,0,0,1-.483-.439.528.528,0,0,1,.4-.609l.983-.171a.489.489,0,0,1,.562.434.521.521,0,0,1-.4.6l-.981.176a.341.341,0,0,1-.08.006" transform="translate(777.667 2565.209)" fill="#26aca3"/>
    <path id="Path_17721" data-name="Path 17721" d="M347.5,509.158a.492.492,0,0,1-.438-.291.553.553,0,0,1,.22-.709l.89-.481a.472.472,0,0,1,.656.237.543.543,0,0,1-.217.705l-.89.484a.473.473,0,0,1-.22.055" transform="translate(777.621 2565.073)" fill="#26aca3"/>
    <path id="Path_17722" data-name="Path 17722" d="M349.292,510.785a.348.348,0,0,1-.054,0,.519.519,0,0,1-.429-.585l.112-1.069a.509.509,0,0,1,.542-.464.521.521,0,0,1,.431.583l-.113,1.069a.508.508,0,0,1-.488.468" transform="translate(777.467 2564.984)" fill="#26aca3"/>
    <path id="Path_17723" data-name="Path 17723" d="M361.273,511.863a2.431,2.431,0,1,1,2.3-2.43,2.369,2.369,0,0,1-2.3,2.43" transform="translate(776.599 2565.125)" fill="#26aca3"/>
    <path id="Path_17727" data-name="Path 17727" d="M352.511,508.471a5.079,5.079,0,0,1,2.641-4.928,6.39,6.39,0,0,1,3.027-.979,12.6,12.6,0,0,0-3.006,1.414,6.414,6.414,0,0,0-2.662,4.493" transform="translate(777.153 2565.505)" fill="#26aca3"/>
  </g>
</svg>
