<svg id="Component_1_2" data-name="Component 1 – 2" xmlns="http://www.w3.org/2000/svg" width="121" height="19.04" viewBox="0 0 121 19.04">
  <rect id="Rectangle_29" data-name="Rectangle 29" width="121" height="19" fill="#fff"/>
  <path id="Shape_921_copy_10" data-name="Shape 921 copy 10" d="M199.176,1071H207l-6.013,4.78L203,1083l-6.468-3.85L190,1083l2-7.22v-.01l-6-4.77h7.82l2.68-7.04Z" transform="translate(-186 -1063.96)" fill="#e3c45a" fill-rule="evenodd"/>
  <path id="Shape_921_copy_10-2" data-name="Shape 921 copy 10" d="M199.176,1071H207l-6.013,4.78L203,1083l-6.468-3.85L190,1083l2-7.22v-.01l-6-4.77h7.82l2.68-7.04Z" transform="translate(-161 -1063.96)" fill="#e3c45a" fill-rule="evenodd"/>
  <path id="Shape_921_copy_10-3" data-name="Shape 921 copy 10" d="M199.176,1071H207l-6.013,4.78L203,1083l-6.468-3.85L190,1083l2-7.22v-.01l-6-4.77h7.82l2.68-7.04Z" transform="translate(-136 -1063.96)" fill="#e3c45a" fill-rule="evenodd"/>
  <path id="Shape_921_copy_10-4" data-name="Shape 921 copy 10" d="M199.176,1071H207l-6.013,4.78L203,1083l-6.468-3.85L190,1083l2-7.22v-.01l-6-4.77h7.82l2.68-7.04Z" transform="translate(-111 -1063.96)" fill="#e3c45a" fill-rule="evenodd"/>
  <path id="Shape_921_copy_10-5" data-name="Shape 921 copy 10" d="M199.176,1071H207l-6.013,4.78L203,1083l-6.468-3.85L190,1083l2-7.22v-.01l-6-4.77h7.82l2.68-7.04Z" transform="translate(-86 -1063.96)" fill="#e3c45a" fill-rule="evenodd"/>
</svg>
