<svg xmlns="http://www.w3.org/2000/svg" width="14" height="14" viewBox="0 0 14 14">
  <path id="Path_17431" data-name="Path 17431" d="M13.344-8.75a.633.633,0,0,1,.465.191A.633.633,0,0,1,14-8.094v2.187a.633.633,0,0,1-.191.465.633.633,0,0,1-.465.191h-.219V-.711a.713.713,0,0,1-.191.506.676.676,0,0,1-.52.205H12.25V.875a.841.841,0,0,1-.26.615.841.841,0,0,1-.615.26H10.5a.841.841,0,0,1-.615-.26.841.841,0,0,1-.26-.615V0H4.375V.875a.841.841,0,0,1-.26.615.841.841,0,0,1-.615.26H2.625a.841.841,0,0,1-.615-.26A.841.841,0,0,1,1.75.875V0a.841.841,0,0,1-.615-.26.841.841,0,0,1-.26-.615V-5.25H.656a.633.633,0,0,1-.465-.191A.633.633,0,0,1,0-5.906V-8.094a.633.633,0,0,1,.191-.465A.633.633,0,0,1,.656-8.75H.875v-1.312q0-.6.82-1.107a6.919,6.919,0,0,1,2.229-.793A15.412,15.412,0,0,1,7-12.25a15.412,15.412,0,0,1,3.076.287,6.919,6.919,0,0,1,2.229.793q.82.506.82,1.107V-8.75ZM3.062-1.312a.841.841,0,0,0,.615-.26.841.841,0,0,0,.26-.615.841.841,0,0,0-.26-.615.841.841,0,0,0-.615-.26.841.841,0,0,0-.615.26.841.841,0,0,0-.26.615.841.841,0,0,0,.26.615A.841.841,0,0,0,3.062-1.312ZM3.5-4.375h7a.841.841,0,0,0,.615-.26.841.841,0,0,0,.26-.615v-3.5a.841.841,0,0,0-.26-.615.841.841,0,0,0-.615-.26h-7a.841.841,0,0,0-.615.26.841.841,0,0,0-.26.615v3.5a.841.841,0,0,0,.26.615A.841.841,0,0,0,3.5-4.375Zm7.437,3.062a.841.841,0,0,0,.615-.26.841.841,0,0,0,.26-.615.841.841,0,0,0-.26-.615.841.841,0,0,0-.615-.26.841.841,0,0,0-.615.26.841.841,0,0,0-.26.615.841.841,0,0,0,.26.615A.841.841,0,0,0,10.937-1.312Z" transform="translate(0 12.25)" fill="#606e79"/>
</svg>
