<svg id="baseline-chat-24px" xmlns="http://www.w3.org/2000/svg" width="24" height="24" viewBox="0 0 24 24">
  <path id="Path_683" data-name="Path 683" d="M0,0H24V24H0Z" fill="none"/>
  <path id="Subtraction_21" data-name="Subtraction 21" d="M-2493,11744v0l.012-18a2,2,0,0,1,1.99-2h16a2,2,0,0,1,2,2v12a2,2,0,0,1-2,2h-14l-4,4Zm4-10a1,1,0,0,0-1,1,1,1,0,0,0,1,1h7a1,1,0,0,0,1-1,1,1,0,0,0-1-1Zm0-3a1,1,0,0,0-1,1,1,1,0,0,0,1,1h12a1,1,0,0,0,1-1,1,1,0,0,0-1-1Zm0-3a1,1,0,0,0-1,1,1,1,0,0,0,1,1h12a1,1,0,0,0,1-1,1,1,0,0,0-1-1Z" transform="translate(2495 -11722)" fill="#f9f9fa"/>
</svg>
