<svg xmlns="http://www.w3.org/2000/svg" width="22" height="22" viewBox="0 0 22 22">
  <path id="Subtraction_5" data-name="Subtraction 5" d="M20,22H2a2,2,0,0,1-2-2V2A2,2,0,0,1,2,0H20a2,2,0,0,1,2,2V20A2,2,0,0,1,20,22ZM2.75,6.188V16.1H7.479a4.852,4.852,0,0,0,2.824-.693,2.3,2.3,0,0,0,.97-1.983,2.506,2.506,0,0,0-.5-1.592,2.546,2.546,0,0,0-1.359-.871,2.366,2.366,0,0,0,.97-.863,2.466,2.466,0,0,0,.361-1.345,2.214,2.214,0,0,0-.927-1.883A4.407,4.407,0,0,0,7.2,6.188Zm10.179,4.4V11.71h2.578v2.534H16.7V11.71h2.577V10.591H16.7V8.043H15.507v2.548ZM7.422,14.952H4.166v-3.3H7.422c1.606,0,2.421.557,2.421,1.656a1.386,1.386,0,0,1-.608,1.247A3.374,3.374,0,0,1,7.422,14.952Zm-.354-4.445h-2.9V7.335h2.9a2.965,2.965,0,0,1,1.678.4,1.349,1.349,0,0,1,.588,1.183A1.346,1.346,0,0,1,8.746,10.1,2.958,2.958,0,0,1,7.069,10.507Z" transform="translate(0 -0.001)" fill="#374047"/>
</svg>
