<svg xmlns="http://www.w3.org/2000/svg" width="23.037" height="23.039" viewBox="0 0 23.037 23.039">
  <g id="discount" transform="translate(0.509 0.521)">
    <path id="Path_17525" data-name="Path 17525" d="M21,11l.965-2.517a.688.688,0,0,0-.209-.781l-2.093-1.7L19.24,3.342a.687.687,0,0,0-.572-.571L16,2.348,14.309.254a.689.689,0,0,0-.78-.209l-2.519.967L8.493.046a.686.686,0,0,0-.78.209l-1.7,2.094-2.663.423a.689.689,0,0,0-.571.571L2.359,6.007.265,7.7a.688.688,0,0,0-.209.78L1.021,11,.056,13.518a.686.686,0,0,0,.209.78l2.094,1.7.423,2.663a.687.687,0,0,0,.571.572l2.663.423,1.7,2.093a.684.684,0,0,0,.781.209l2.516-.964,2.518.965a.688.688,0,0,0,.781-.21L16,19.651l2.663-.423a.689.689,0,0,0,.572-.572l.423-2.663,2.093-1.7a.686.686,0,0,0,.209-.78Z" transform="translate(0 0)" fill="#d92531" stroke="#f9f9fa" stroke-width="1"/>
    <g id="Group_1782" data-name="Group 1782" transform="translate(6.854 5.458)">
      <path id="Path_17526" data-name="Path 17526" d="M162.1,132.192a2.078,2.078,0,1,1,2.078-2.078A2.081,2.081,0,0,1,162.1,132.192Zm0-2.771a.693.693,0,1,0,.693.693A.693.693,0,0,0,162.1,129.421Z" transform="translate(-160.022 -128.034)" fill="#fafafa"/>
      <path id="Path_17527" data-name="Path 17527" d="M258.1,292.192a2.078,2.078,0,1,1,2.078-2.078A2.081,2.081,0,0,1,258.1,292.192Zm0-2.771a.693.693,0,1,0,.693.693A.695.695,0,0,0,258.1,289.421Z" transform="translate(-251.865 -281.107)" fill="#fafafa"/>
      <path id="Path_17528" data-name="Path 17528" d="M160.728,139.1a.693.693,0,0,1-.563-1.1l6.928-9.7a.693.693,0,0,1,1.128.8l-6.928,9.7A.7.7,0,0,1,160.728,139.1Z" transform="translate(-160.036 -128.017)" fill="#fafafa"/>
    </g>
  </g>
</svg>
