<svg xmlns="http://www.w3.org/2000/svg" width="24" height="24" viewBox="0 0 24 24">
  <g id="doc_file" data-name="doc file" transform="translate(-1232 -1488)">
    <path id="Path_516" data-name="Path 516" d="M0,0H24V24H0Z" transform="translate(1232 1488)" fill="none"/>
    <path id="Subtraction_21" data-name="Subtraction 21" d="M14,20H1.991A2,2,0,0,1,0,18L.011,2A2,2,0,0,1,2,0h8l6,6V18A2,2,0,0,1,14,20ZM4.1,14.2a.9.9,0,1,0,0,1.8h7.2a.9.9,0,0,0,0-1.8Zm0-4.2a.9.9,0,1,0,0,1.8h7.2a.9.9,0,0,0,0-1.8ZM9,1.5V7h5.5Z" transform="translate(1235.999 1490.001)" fill="#26aca3"/>
  </g>
</svg>
