<svg id="Group_2089" data-name="Group 2089" xmlns="http://www.w3.org/2000/svg" width="22" height="17.037" viewBox="0 0 22 17.037">
  <path id="Path_17611" data-name="Path 17611" d="M189.786,2785.033h.345a1.5,1.5,0,0,1,1.277,1.252,1.456,1.456,0,1,1-1.622-1.252" transform="translate(-180.648 -2785.033)" fill="#191000" fill-rule="evenodd"/>
  <path id="Path_17612" data-name="Path 17612" d="M174.062,2801.746l7.134-7.135a2.264,2.264,0,0,1,.715-.583,4.615,4.615,0,0,1,1.167-.043c.391.009.786.035,1.167.022a2.838,2.838,0,0,0,2.27-4.174,2.76,2.76,0,0,0-1.188-1.188,4.369,4.369,0,0,0-2.076-.3c-1.616,0-3.167-.135-4.2.562a7.02,7.02,0,0,0-.885.843c-.784.784-1.567,1.586-2.358,2.38-.048.047-.152.177-.195.13a4.6,4.6,0,0,0-.108-1.45,1.464,1.464,0,0,0-2.789.389c-.083.79,0,2,0,2.92a5.748,5.748,0,0,1,0,.95c-.051.247-.539.623-.714.8l-1.514,1.512c-.231.233-.574.66-.843.713-.738.149-1.716-.064-2.551.066a2.42,2.42,0,0,0-1.622,1.016,2.688,2.688,0,0,0-.606,1.967,2.865,2.865,0,0,0,2.594,2.66h3.439c1.461-.145,2.3-1.2,3.156-2.054m6.616-11.936c.438-.037,1.22-.021,1.945-.021a7.068,7.068,0,0,1,1.9.064,1.42,1.42,0,0,1,0,2.616c-.8.291-2.374-.139-3.157.174a4.914,4.914,0,0,0-1.363,1.166c-2.389,2.389-4.76,4.737-7.178,7.156-.536.536-.941,1.156-1.708,1.319a10.276,10.276,0,0,1-1.859.045,10.741,10.741,0,0,1-1.882-.021,1.414,1.414,0,0,1-.259-2.638c.792-.277,2.173.1,3.006-.13.62-.169,1.078-.821,1.469-1.209,2.476-2.478,4.83-4.81,7.308-7.287a4.809,4.809,0,0,1,1.277-1.147,2.218,2.218,0,0,1,.5-.087" transform="translate(-164.859 -2786.763)" fill="#191000" fill-rule="evenodd"/>
</svg>
