<svg id="baseline-tune-24px" xmlns="http://www.w3.org/2000/svg" width="32" height="32" viewBox="0 0 32 32">
  <path id="Path_881" data-name="Path 881" d="M0,0H32V32H0Z" fill="none"/>
  <path id="Union_26" data-name="Union 26" d="M11.813,17.285a2.671,2.671,0,0,1,2.624-2.714,2.611,2.611,0,0,1,2.274,1.357h2.932a1.357,1.357,0,1,1,0,2.714H16.711A2.61,2.61,0,0,1,14.437,20,2.671,2.671,0,0,1,11.813,17.285ZM1.357,18.643a1.357,1.357,0,0,1,0-2.714H9.142a1.357,1.357,0,0,1,0,2.714Zm1.619-7.786H1.357a1.357,1.357,0,1,1,0-2.714H2.976A2.609,2.609,0,0,1,5.25,6.786a2.715,2.715,0,0,1,0,5.428A2.609,2.609,0,0,1,2.976,10.857Zm8.88,0a1.357,1.357,0,1,1,0-2.714h7.786a1.357,1.357,0,1,1,0,2.714Zm1.268-9.571A2.671,2.671,0,0,1,15.75-1.429,2.61,2.61,0,0,1,18.023-.072h1.619a1.357,1.357,0,1,1,0,2.714H18.023A2.609,2.609,0,0,1,15.75,4,2.671,2.671,0,0,1,13.125,1.285ZM1.357,2.644a1.357,1.357,0,0,1,0-2.714H9.142a1.357,1.357,0,0,1,0,2.714Z" transform="translate(5 6.729)" fill="#f9f9fa"/>
</svg>
