<svg id="меню_иконка-24px" data-name="меню иконка-24px" xmlns="http://www.w3.org/2000/svg" width="24" height="24" viewBox="0 0 24 24">
  <path id="Path_697" data-name="Path 697" d="M0,0H24V24H0Z" fill="none"/>
  <path id="соцсети" d="M8-7.482a4,4,0,0,1,2.054.554,4.119,4.119,0,0,1,1.5,1.5,4,4,0,0,1,.554,2.054,4,4,0,0,1-.554,2.054,4.119,4.119,0,0,1-1.5,1.5A4,4,0,0,1,8,.732,4,4,0,0,1,5.946.179a4.119,4.119,0,0,1-1.5-1.5,4,4,0,0,1-.554-2.054,4,4,0,0,1,.554-2.054,4.119,4.119,0,0,1,1.5-1.5A4,4,0,0,1,8-7.482ZM8-.7a2.58,2.58,0,0,0,1.893-.786,2.58,2.58,0,0,0,.786-1.893,2.58,2.58,0,0,0-.786-1.893A2.58,2.58,0,0,0,8-6.054a2.58,2.58,0,0,0-1.893.786,2.58,2.58,0,0,0-.786,1.893,2.58,2.58,0,0,0,.786,1.893A2.58,2.58,0,0,0,8-.7Zm5.25-6.964a1.113,1.113,0,0,1-.3.679.87.87,0,0,1-.661.286.927.927,0,0,1-.679-.286.927.927,0,0,1-.286-.679.927.927,0,0,1,.286-.679.927.927,0,0,1,.679-.286.927.927,0,0,1,.679.286A.927.927,0,0,1,13.25-7.661Zm2.714.964Q16-5.7,16-3.375T15.946-.036a6.735,6.735,0,0,1-.3,1.768,4.163,4.163,0,0,1-.982,1.554,4.163,4.163,0,0,1-1.554.982,6.735,6.735,0,0,1-1.768.3Q10.321,4.625,8,4.625T4.661,4.571a5.832,5.832,0,0,1-1.768-.339,3.807,3.807,0,0,1-1.554-.946A4.163,4.163,0,0,1,.357,1.732a6.735,6.735,0,0,1-.3-1.768Q0-1.054,0-3.375T.054-6.714a6.735,6.735,0,0,1,.3-1.768,4.163,4.163,0,0,1,.982-1.554,4.163,4.163,0,0,1,1.554-.982,6.735,6.735,0,0,1,1.768-.3Q5.679-11.375,8-11.375t3.339.054a6.735,6.735,0,0,1,1.768.3,4.163,4.163,0,0,1,1.554.982,4.163,4.163,0,0,1,.982,1.554A7.266,7.266,0,0,1,15.964-6.7ZM14.25,1.339a7.52,7.52,0,0,0,.286-1.929q.036-.786.036-2.214V-3.946q0-1.464-.036-2.214a7.166,7.166,0,0,0-.286-1.929,2.578,2.578,0,0,0-1.536-1.536,7.166,7.166,0,0,0-1.929-.286Q10-9.946,8.571-9.946H7.429q-1.429,0-2.214.036a7.52,7.52,0,0,0-1.929.286A2.578,2.578,0,0,0,1.75-8.089a7.166,7.166,0,0,0-.286,1.929q-.036.786-.036,2.214V-2.8q0,1.429.036,2.214A7.52,7.52,0,0,0,1.75,1.339,2.707,2.707,0,0,0,3.286,2.875a7.52,7.52,0,0,0,1.929.286Q6,3.2,7.429,3.2H8.571q1.464,0,2.214-.036a7.166,7.166,0,0,0,1.929-.286A2.707,2.707,0,0,0,14.25,1.339Z" transform="translate(4 15)" fill="#b2b2b2"/>
</svg>
