<svg xmlns="http://www.w3.org/2000/svg" width="192" height="59.975" viewBox="0 0 192 59.975"><defs><style>.a{fill:#26aca3;}.a,.b{fill-rule:evenodd;}.b{fill:#d8242f;}</style></defs><path class="a" d="M146.209,22.1v4.912h-9.976V31.9h8.426v4.912h-8.426V43.22h9.976v4.912H127.37V22.1Z" transform="translate(-26.124 -4.533)"/><path class="a" d="M80.4,23.4c-1.789-1.312-4.674-2.091-8.577-2.091h-.087c-3.943,0-6.788.715-8.664,2.091a6.249,6.249,0,0,0-2.719,5.238V40.4a7.3,7.3,0,0,0,2.719,6.081c1.876,1.423,4.761,2.114,8.664,2.114s6.788-.692,8.664-2.114A7.294,7.294,0,0,0,83.132,40.4V28.7A6.345,6.345,0,0,0,80.4,23.4ZM74.706,41.5a2.394,2.394,0,0,1-.946,1.789,3.752,3.752,0,0,1-2.027.541,3.426,3.426,0,0,1-2.027-.541,2.394,2.394,0,0,1-.93-1.789V28.249a1.91,1.91,0,0,1,.93-1.637,3.433,3.433,0,0,1,2.027-.556,3.839,3.839,0,0,1,2.027.556,1.922,1.922,0,0,1,.946,1.637Z" transform="translate(-12.378 -4.371)"/><path class="a" d="M115.665,25.047a7.793,7.793,0,0,0-3.816-2.353,17.483,17.483,0,0,0-4.849-.6H94.68V48.123h8.513V39.792h3.816a20.276,20.276,0,0,0,4.849-.628,7.984,7.984,0,0,0,3.816-2.416c1.017-1.161,1.4-3.6,1.486-5.691C117.152,28.863,116.683,26.144,115.665,25.047ZM107.478,34.4a4.476,4.476,0,0,1-1.526.58,5.847,5.847,0,0,1-1.272.127h-1.486V26.772H104.5a9.959,9.959,0,0,1,1.447.087,4.118,4.118,0,0,1,1.614.541c.692.453,1.161,1.55,1.161,3.49C108.726,32.527,108.257,33.95,107.478,34.4Z" transform="translate(-19.419 -4.531)"/><path class="a" d="M216.686,22.1H202.33L196.4,48.133h9.825l.556-4.825H213.1l.628,4.825h9.889Zm-6.749,17.543h-2.846l1.4-14.356h2.822l1.463,14.356Z" transform="translate(-40.282 -4.533)"/><path class="a" d="M25.818,14.132h-8.1V45.579H8.9V14.132H0V9.22H25.818Z" transform="translate(0 -1.891)"/><path class="a" d="M50.891,22.1v4.912H40.979V31.9H49.4v4.912H40.979V43.22h9.912v4.912H32.1V22.1Z" transform="translate(-6.584 -4.533)"/><path class="a" d="M186.344,22.1V48.133h-8.879V32.076l-4.459,16.057h-3.577l-4.38-16.057-.079,16.057H156.09V22.1h11.375l3.45,11.916h.843L174.969,22.1Z" transform="translate(-32.014 -4.533)"/><path class="b" d="M156.87,14.284,171.226,0l14.356,14.284Z" transform="translate(-32.174)"/><g transform="translate(0.707 7.329)"><path class="a" d="M134.066,9.22H37.39v4.912h91.763Z" transform="translate(-8.376 -9.22)"/><path class="a" d="M31.829,65.134a1.473,1.473,0,0,0-.429-.064l.151,1.55a.624.624,0,0,0,.278-.064.891.891,0,0,0,.429-.795A.621.621,0,0,0,31.829,65.134Z" transform="translate(-7.148 -20.675)"/><path class="a" d="M187.357,9.22h-35.5l4.523,4.523.4.39h30.6V49.951H.89V61.866H192.183V9.22ZM8.521,59.068l-.692-.04-1.789-.1.779-1.876L4.4,51.811l2.48-.151.946,2.432.238.6.843-3.037,2.353.151ZM19.6,58.917l-2.265.151V53.83h-1.4v5.087l-2.265.151V51.8H19.6Zm5.97-2.027h-.429v2.027l-2.265.151V51.8h2.194a3.878,3.878,0,0,1,.493.024c1.081.064,2.695.453,2.695,2.568A2.517,2.517,0,0,1,25.572,56.89Zm9.634,2.178-.3-1.161H32.94l-.389,1.161L30.2,58.917,32.551,51.8h2.734L37.7,58.917Zm8.187-.151H40.206V51.8h2.885c1.7,0,2.416.946,2.416,1.876a1.691,1.691,0,0,1-.858,1.486,1.826,1.826,0,0,1,1.1,1.725A2.074,2.074,0,0,1,43.393,58.917Zm8.815.151L51.3,54.434l-.024-.191-.946,4.825-2.178-.151L49.943,51.8h2.742l1.789,7.114Zm10.6-.151-2.178.151-.087-3.124-.692,1.765-.564,1.359-2.416-.238,1.4-2.949a1.869,1.869,0,0,1-1.161-1.812c0-1.812,1.55-2.178,2.734-2.242.191,0,.366-.024.541-.024H62.8v7.114Zm9.825.151a4.609,4.609,0,0,1-1.3-.191,3.441,3.441,0,0,1-2.369-2.607h-.541v2.647l-2.265.151V51.8l2.265-.215v2.655h.541a3.652,3.652,0,0,1,2.369-2.393,4.526,4.526,0,0,1,1.3-.191,3.709,3.709,0,1,1,0,7.408Zm16.144.922-2.091.175V58.917H79.514V51.8l2.265-.151V56.89h.93V51.8l1.447-.087.819-.064V56.89h.859V51.8l2.265-.151V56.89h.692v3.1Zm7.178-.922-.3-1.161H93.7l-.389,1.161-2.329-.151L93.313,51.8h2.734l2.417,7.114Zm10.668-.151-2.265.151-.087-3.124-.644,1.765-.517,1.359-2.48-.238,1.423-2.949a1.867,1.867,0,0,1-1.184-1.812c0-1.812,1.6-2.178,2.758-2.242.175,0,.342-.024.493-.024h2.5v7.114Zm11.55.151a10.042,10.042,0,0,1-.6-1.447c-.191-.517-.453-1.248-.819-2.218v3.513l-2.242.151V51.8l2.242-.151a17.306,17.306,0,0,1,.087,3.211l.731-2.178.366-1.033,2.416.151-1.4,3.211,1.7,3.9Zm8.879,0h-.04a3.719,3.719,0,1,1,0-7.416h.04a3.718,3.718,0,1,1,0,7.416Zm12.178,0a19.44,19.44,0,0,1-.389-3.362l-1.335,3.6a37.3,37.3,0,0,1-1.4-3.6l-.3,3.362-2.265-.151.93-7.114h2.114l.93,2.655,1.01-2.655h2.027l.946,7.114Zm10.906-.151-2.265.151V53.83h-1.312v5.087l-2.265.151V51.8h5.843Zm7.56.151-.39-1.161h-1.94l-.389,1.161-2.353-.151,2.353-7.114h2.711l2.432,7.114Zm10.779-.151-2.265.151V56.262h-1.335v2.647l-2.265.151V51.795l2.265-.151v2.583h1.335V51.795l2.265-.151Zm9.745,0-2.178.151-.087-3.816-.97,1.685-1.121,1.979h-2.114V51.8l2.178-.151v3.664l1.057-1.749,1.057-1.765h2.178Zm8.959,0-2.265.151-.056-3.124-.668,1.765-.493,1.359-2.5-.238,1.4-2.949a1.978,1.978,0,0,1-1.161-1.812c0-1.812,1.614-2.178,2.758-2.242.191,0,.366-.024.517-.024h2.48v7.114Z" transform="translate(-0.89 -9.22)"/><path class="a" d="M41.7,67.605h1.1l-.541-2.265Z" transform="translate(-9.26 -20.73)"/><path class="a" d="M53.415,68.11H53.2v1.248h.215c.628,0,.707-.389.707-.628C54.122,68.643,54.122,68.11,53.415,68.11Z" transform="translate(-11.619 -21.298)"/><path class="a" d="M53.969,65.414c0-.389-.238-.564-.628-.564H53.19v1.1H53.4A.52.52,0,0,0,53.969,65.414Z" transform="translate(-11.617 -20.63)"/><path class="a" d="M74.59,66.118a.859.859,0,0,0,.843.843h.326v-1.7h-.326A.857.857,0,0,0,74.59,66.118Z" transform="translate(-16.006 -20.714)"/><path class="a" d="M90.75,65.26A1.568,1.568,0,0,0,89.2,66.9a1.624,1.624,0,0,0,1.55,1.637A1.644,1.644,0,0,0,92.324,66.9,1.583,1.583,0,0,0,90.75,65.26Z" transform="translate(-19.002 -20.714)"/><path class="a" d="M118.13,67.605h1.1l-.541-2.265Z" transform="translate(-24.936 -20.73)"/><path class="a" d="M129.68,66.118a.808.808,0,0,0,.795.843h.3v-1.7h-.3A.808.808,0,0,0,129.68,66.118Z" transform="translate(-27.305 -20.714)"/><path class="a" d="M159.187,65.26A1.6,1.6,0,0,0,157.55,66.9a1.65,1.65,0,0,0,1.637,1.637,1.7,1.7,0,0,0,1.638-1.637A1.635,1.635,0,0,0,159.187,65.26Z" transform="translate(-33.021 -20.714)"/><path class="a" d="M196.261,65.34l-.541,2.265h1.168l-.54-2.265Z" transform="translate(-40.85 -20.73)"/><path class="a" d="M231.05,66.118a.791.791,0,0,0,.779.843h.3v-1.7h-.215A.867.867,0,0,0,231.05,66.118Z" transform="translate(-48.096 -20.714)"/></g></svg>