<svg xmlns="http://www.w3.org/2000/svg" width="128" height="39.983" viewBox="0 0 128 39.983"><defs><style>.a{fill:#f9f9fa;}.a,.b{fill-rule:evenodd;}.b{fill:#d8242f;}</style></defs><path class="a" d="M139.929,22.1v3.275h-6.651v3.259H138.9v3.275h-5.617V36.18h6.651v3.275H127.37V22.1Z" transform="translate(-59.872 -10.388)"/><path class="a" d="M73.715,22.7A9.775,9.775,0,0,0,68,21.31h-.058c-2.628,0-4.526.477-5.776,1.394A4.166,4.166,0,0,0,60.35,26.2v7.843a4.869,4.869,0,0,0,1.812,4.054c1.251.949,3.174,1.41,5.776,1.41s4.526-.461,5.776-1.41a4.862,4.862,0,0,0,1.823-4.054v-7.8A4.23,4.23,0,0,0,73.715,22.7ZM69.921,34.77a1.6,1.6,0,0,1-.631,1.192,2.5,2.5,0,0,1-1.351.36,2.284,2.284,0,0,1-1.351-.36,1.6,1.6,0,0,1-.62-1.192V25.936a1.274,1.274,0,0,1,.62-1.092,2.288,2.288,0,0,1,1.351-.371,2.559,2.559,0,0,1,1.351.371,1.282,1.282,0,0,1,.631,1.092Z" transform="translate(-28.369 -10.017)"/><path class="a" d="M108.67,24.061a5.2,5.2,0,0,0-2.544-1.569,11.655,11.655,0,0,0-3.233-.4H94.68V39.445h5.676V33.892H102.9a13.517,13.517,0,0,0,3.233-.419,5.323,5.323,0,0,0,2.544-1.611,6.871,6.871,0,0,0,.991-3.794C109.661,26.605,109.349,24.793,108.67,24.061ZM103.212,30.3a2.984,2.984,0,0,1-1.017.387,3.9,3.9,0,0,1-.848.085h-.991V25.211h.874a6.639,6.639,0,0,1,.964.058,2.746,2.746,0,0,1,1.076.36c.461.3.774,1.033.774,2.326A2.8,2.8,0,0,1,103.212,30.3Z" transform="translate(-44.506 -10.384)"/><path class="a" d="M209.924,22.1h-9.571L196.4,39.455h6.55l.371-3.217h4.213l.419,3.217h6.592Zm-4.5,11.7h-1.9l.933-9.571h1.881l.975,9.571Z" transform="translate(-92.321 -10.388)"/><path class="a" d="M17.212,12.495h-5.4V33.459H5.935V12.495H0V9.22H17.212Z" transform="translate(0 -4.334)"/><path class="a" d="M44.628,22.1v3.275H38.019v3.259h5.617v3.275H38.019V36.18h6.608v3.275H32.1V22.1Z" transform="translate(-15.089 -10.388)"/><path class="a" d="M176.259,22.1V39.455H170.34v-10.7l-2.973,10.7h-2.385l-2.92-10.7-.053,10.7H156.09V22.1h7.583l2.3,7.944h.562l2.141-7.944Z" transform="translate(-73.373 -10.388)"/><path class="b" d="M156.87,9.523,166.441,0l9.571,9.523Z" transform="translate(-73.739)"/><g transform="translate(0.472 4.886)"><path class="a" d="M101.84,9.22H37.39v3.275H98.565Z" transform="translate(-18.047 -9.22)"/><path class="a" d="M31.686,65.112a.982.982,0,0,0-.286-.042l.1,1.033a.416.416,0,0,0,.185-.042.594.594,0,0,0,.286-.53A.414.414,0,0,0,31.686,65.112Z" transform="translate(-15.232 -35.473)"/><path class="a" d="M125.2,9.22H101.535l3.015,3.015.265.26h20.4V36.374H.89v7.944H128.418V9.22ZM5.977,42.452l-.461-.027-1.192-.069.519-1.251L3.232,37.614l1.653-.1.631,1.622.159.4.562-2.024,1.569.1Zm7.387-.1-1.51.1V38.96h-.933v3.392l-1.51.1V37.609h3.953ZM17.344,41h-.286v1.351l-1.51.1V37.609h1.463a2.585,2.585,0,0,1,.329.016c.721.042,1.8.3,1.8,1.712A1.678,1.678,0,0,1,17.344,41Zm6.423,1.452-.2-.774H22.257l-.26.774-1.569-.1L22,37.609H23.82l1.611,4.743Zm5.458-.1H27.1V37.609h1.924c1.134,0,1.611.631,1.611,1.251a1.127,1.127,0,0,1-.572.991A1.217,1.217,0,0,1,30.794,41,1.383,1.383,0,0,1,29.226,42.351Zm5.877.1-.6-3.09-.016-.127-.631,3.217-1.452-.1,1.192-4.743H35.42l1.192,4.743Zm7.069-.1-1.452.1-.058-2.083L40.2,41.546l-.376.906-1.611-.159.933-1.966a1.246,1.246,0,0,1-.774-1.208c0-1.208,1.033-1.452,1.823-1.494.127,0,.244-.016.36-.016h1.611v4.743Zm6.55.1a3.072,3.072,0,0,1-.864-.127,2.294,2.294,0,0,1-1.579-1.738h-.36v1.765l-1.51.1V37.609l1.51-.143v1.77h.36a2.434,2.434,0,0,1,1.579-1.6,3.017,3.017,0,0,1,.864-.127,2.473,2.473,0,1,1,0,4.939Zm10.763.615-1.394.117v-.832H53.306V37.609l1.51-.1V41h.62V37.609l.964-.058.546-.042V41h.572V37.609l1.51-.1V41h.461v2.067Zm4.785-.615-.2-.774h-1.3l-.26.774-1.553-.1,1.553-4.743h1.823l1.611,4.743Zm7.112-.1-1.51.1-.058-2.083-.429,1.176-.344.906-1.653-.159.949-1.966a1.245,1.245,0,0,1-.79-1.208c0-1.208,1.065-1.452,1.839-1.494.117,0,.228-.016.329-.016h1.664v4.743Zm7.7.1a6.694,6.694,0,0,1-.4-.964c-.127-.344-.3-.832-.546-1.479v2.342l-1.494.1V37.609l1.494-.1a11.537,11.537,0,0,1,.058,2.141l.488-1.452.244-.689,1.611.1L79.6,39.749l1.134,2.6Zm5.919,0h-.026a2.48,2.48,0,1,1,0-4.944H85a2.479,2.479,0,1,1,0,4.944Zm8.119,0a12.959,12.959,0,0,1-.26-2.242l-.89,2.4a24.872,24.872,0,0,1-.933-2.4l-.2,2.242-1.51-.1.62-4.743h1.41l.62,1.77.673-1.77H94l.631,4.743Zm7.271-.1-1.51.1V38.96h-.874v3.392l-1.51.1V37.609h3.9Zm5.04.1-.26-.774h-1.293l-.26.774-1.569-.1,1.569-4.743h1.807l1.622,4.743Zm7.186-.1-1.51.1V40.581h-.89v1.765l-1.51.1V37.6l1.51-.1v1.722h.89V37.6l1.51-.1Zm6.5,0-1.452.1-.058-2.544-.647,1.123-.747,1.32H114.8V37.609l1.452-.1v2.443l.7-1.166.7-1.176h1.452Zm5.972,0-1.51.1-.037-2.083-.445,1.176-.329.906-1.664-.159.933-1.966a1.319,1.319,0,0,1-.774-1.208c0-1.208,1.076-1.452,1.839-1.494.127,0,.244-.016.344-.016H125.1v4.743Z" transform="translate(-0.89 -9.22)"/><path class="a" d="M41.7,66.85h.731l-.36-1.51Z" transform="translate(-20.073 -35.6)"/><path class="a" d="M53.343,68.11H53.2v.832h.143c.419,0,.472-.26.472-.419C53.815,68.465,53.815,68.11,53.343,68.11Z" transform="translate(-25.479 -36.902)"/><path class="a" d="M53.709,65.226c0-.26-.159-.376-.419-.376h-.1v.731h.143A.346.346,0,0,0,53.709,65.226Z" transform="translate(-25.475 -35.37)"/><path class="a" d="M74.59,65.832a.573.573,0,0,0,.562.562h.217V65.26h-.217A.571.571,0,0,0,74.59,65.832Z" transform="translate(-35.534 -35.563)"/><path class="a" d="M90.233,65.26A1.046,1.046,0,0,0,89.2,66.352a1.083,1.083,0,0,0,1.033,1.092,1.1,1.1,0,0,0,1.049-1.092A1.055,1.055,0,0,0,90.233,65.26Z" transform="translate(-42.402 -35.563)"/><path class="a" d="M118.13,66.85h.731l-.36-1.51Z" transform="translate(-56.001 -35.6)"/><path class="a" d="M129.68,65.832a.539.539,0,0,0,.53.562h.2V65.26h-.2A.538.538,0,0,0,129.68,65.832Z" transform="translate(-61.43 -35.563)"/><path class="a" d="M158.642,65.26a1.064,1.064,0,0,0-1.092,1.092,1.1,1.1,0,0,0,1.092,1.092,1.133,1.133,0,0,0,1.092-1.092A1.09,1.09,0,0,0,158.642,65.26Z" transform="translate(-74.531 -35.563)"/><path class="a" d="M196.08,65.34l-.36,1.51h.779l-.36-1.51Z" transform="translate(-92.473 -35.6)"/><path class="a" d="M231.05,65.832a.527.527,0,0,0,.519.562h.2V65.26h-.143A.578.578,0,0,0,231.05,65.832Z" transform="translate(-109.081 -35.563)"/></g></svg>