<svg xmlns="http://www.w3.org/2000/svg" xmlns:xlink="http://www.w3.org/1999/xlink" width="200" height="80" viewBox="0 0 200 80"><defs><style>.a,.g{fill:#fff;}.a{stroke:#707070;}.b{clip-path:url(#a);}.c{fill:#868082;}.d{fill:#534e4f;}.e{fill:#eac5b3;}.f{fill:#cf7545;}.h{fill:#242121;}.i{fill:#232021;}.j{fill:#995a43;}</style><clipPath id="a"><rect class="a" width="200" height="80" transform="translate(296 1759.63)"/></clipPath></defs><g class="b" transform="translate(-296 -1759.63)"><g transform="translate(296 1761.919)"><path class="c" d="M77.827,37.748l-1.664.2h0A42.721,42.721,0,0,0,46.5,55.076l-.881,1.273L51.1,60.166l.881-1.175A35.956,35.956,0,0,1,72.54,45.384a25.376,25.376,0,0,1,.392,4.7A29.6,29.6,0,0,1,43.465,79.745a29.118,29.118,0,0,1-17.621-5.874,29.413,29.413,0,0,1-10.181-14.1l-.392-.979H6.657l.587,1.958A37.607,37.607,0,0,0,43.563,88.262,37.915,37.915,0,0,0,81.351,50.279a37.5,37.5,0,0,0-1.762-11.258L79.2,37.846Z" transform="translate(-6.265 -12.1)"/><path class="d" d="M77.572,39A36.875,36.875,0,0,1,79.236,49.77a36.264,36.264,0,0,1-71.17,9.985h5.482a30.919,30.919,0,0,0,10.768,14.88,30.44,30.44,0,0,0,18.6,6.265A30.839,30.839,0,0,0,73.461,44.582l-.2-1.371-1.371.294A37.061,37.061,0,0,0,50.259,57.7c-.979-.685-2.056-1.371-3.035-2.154A41.236,41.236,0,0,1,75.908,39h0A9.43,9.43,0,0,0,77.572,39Z" transform="translate(-5.913 -11.787)"/><path class="c" d="M68.664,37.67H67.2V64.4h19.09a4.957,4.957,0,0,0,3.524-1.371c1.273-1.273,1.86-3.231,1.86-5.972v-.1a7.027,7.027,0,0,0-2.839-6.07,1.719,1.719,0,0,0,.489-.392,7.385,7.385,0,0,0,2.056-5.384h0c0-4.6-2.349-7.342-6.07-7.342H68.664Zm15.37,6.755v3.133H75.712v6.755h8.321v3.133H74.44V44.327C76.5,44.425,82.075,44.425,84.033,44.425Z" transform="translate(8.869 -12.119)"/><path class="d" d="M83.72,50.69a5.668,5.668,0,0,0,5.874-5.972c0-3.622-1.664-5.874-4.6-5.874H68.448V62.535H85.972c2.545,0,3.916-2.154,3.916-5.972C89.79,51.865,86.657,50.788,83.72,50.69Zm1.566,8.027H72.658V42.663H85.286V48.83H76.965v3.818h8.321Z" transform="translate(9.183 -11.826)"/><path class="c" d="M88.869,37.69H87.4V64.415h7.342V56.29H106.49c3.622,0,4.895-2.937,4.895-5.482V42.584c0-3.133-1.958-4.993-5.384-4.993H88.869Zm15.174,6.755v4.993h-9.3V44.444Z" transform="translate(13.921 -12.139)"/><path class="d" d="M105.688,38.845H88.654V62.535h4.307V54.41h13.314c3.133,0,3.328-3.035,3.328-3.916V42.271C109.506,40.02,108.233,38.845,105.688,38.845ZM105.2,50.69H92.863V42.663H105.2Z" transform="translate(14.234 -11.826)"/><path class="c" d="M130.044,37.592h-6.069s-5.874,9.2-9.1,14.195V37.592h-7.342V64.317h7.146l.392-.685c.392-.685,5.188-7.832,9.1-13.607V64.415h7.342V37.592Z" transform="translate(18.953 -12.139)"/><path class="d" d="M124.444,38.845,113.089,56.662V38.845h-4.307V62.535h4.8c.685-1.175,11.845-17.817,11.845-17.817V62.535h4.307V38.845h-5.286Z" transform="translate(19.266 -11.826)"/><path class="c" d="M133.745,37.67h-5.776V64.4h7.342V52.55h1.958c2.154,0,2.349.685,2.937,2.545.587,1.958,2.545,8.027,2.643,8.321l.294,1.077h8.223l-.783-2.056c-.2-.392-3.72-9.985-3.916-10.671a6.072,6.072,0,0,0-2.154-2.741,6.588,6.588,0,0,0,1.371-1.468c.587-.881,4.21-6.951,4.6-7.636l1.371-2.252H143.24l-2.643,4.8-.489.881c-.979,1.664-1.371,2.349-3.035,2.349h-1.958V37.67Z" transform="translate(24.063 -12.119)"/><path class="d" d="M143.847,38.845s-2.154,4.014-2.252,4.014c-1.175,1.958-1.86,4.014-4.8,4.014h-3.426V38.845h-4.307V62.535h4.307V50.69H136.8c3.231,0,3.72,1.566,4.405,3.622.587,1.958,2.643,8.321,2.643,8.321h4.993s-3.72-9.985-3.916-10.671c-.979-2.545-3.524-3.035-5.286-3.133a6.081,6.081,0,0,0,4.7-2.447c.587-.881,4.5-7.538,4.5-7.538h-4.993Z" transform="translate(24.337 -11.826)"/><path class="c" d="M150.7,29.78v6.559h13.02v3.328H152.266a5.074,5.074,0,0,0-5.188,5.286V61.008c0,3.426,1.958,5.286,5.384,5.286h18.6V36.339c0-.783.2-3.328-1.468-5.091a5.3,5.3,0,0,0-3.916-1.566H150.7Zm13.02,16.642v13.02h-9.3V46.422Z" transform="translate(28.84 -14.116)"/><path class="d" d="M165.365,30.935H151.953v3.524h13.02v6.265H152.051a3.686,3.686,0,0,0-3.72,3.818V60.6q0,3.818,3.818,3.818h17.034V36.123C169.183,35.732,169.868,31.033,165.365,30.935Zm-.392,29.76H152.638V44.64h12.335Z" transform="translate(29.153 -13.803)"/><path class="e" d="M6.833,45.717l-.489,1.86H14.86l.294-1.077a29.792,29.792,0,0,1,28.194-20.95,29.356,29.356,0,0,1,21.439,9.4A53.4,53.4,0,0,0,38.062,54.332L37.181,55.6l5.482,3.818.881-1.175A46.621,46.621,0,0,1,69.29,40.724a48.467,48.467,0,0,1,7.244-1.175H184.807V32.893H73.989A37.708,37.708,0,0,0,6.833,45.717Z" transform="translate(-6.344 -17.23)"/><path class="f" d="M7.91,45.8h5.482A30.849,30.849,0,0,1,65.766,33.852l1.371,1.468-1.958.587A50.892,50.892,0,0,0,38.845,54.9c.979.685,2.056,1.468,3.035,2.056A48.027,48.027,0,0,1,68.507,38.845a36.765,36.765,0,0,1,7.538-1.175h106.8V34.146H72.717l-.392-.587A36.142,36.142,0,0,0,7.91,45.8Z" transform="translate(-5.952 -16.916)"/><g transform="translate(68.82 17.327)"><path class="g" d="M62.379,31.933H61.4v-.685h3.328v.685h-.979v2.252H62.477V31.933Z" transform="translate(-61.4 -31.052)"/><path class="g" d="M64.768,32.736c0-.783.783-1.566,2.447-1.566s2.447.783,2.447,1.566S68.879,34.3,67.215,34.3,64.768,33.519,64.768,32.736Zm3.622,0c0-.587-.587-.881-1.175-.881s-1.175.294-1.175.881.587.881,1.175.881C67.9,33.519,68.39,33.226,68.39,32.736Z" transform="translate(-60.558 -31.072)"/><path class="g" d="M69.78,31.17h1.958c1.273,0,1.664.587,1.664.979s-.392.979-1.664.979h-.685v.979H69.78Zm1.273,1.371h.392c.587,0,.587-.2.587-.392s-.1-.294-.587-.294h-.392Z" transform="translate(-59.305 -31.072)"/><path class="g" d="M73.7,31.17h2.741v.685H74.968v2.252H73.7Z" transform="translate(-58.326 -31.072)"/><path class="g" d="M76.672,32.736c0-.783.783-1.566,2.447-1.566s2.447.783,2.447,1.566S80.783,34.3,79.119,34.3,76.672,33.519,76.672,32.736Zm3.622,0c0-.587-.587-.881-1.175-.881s-1.175.294-1.175.881.587.881,1.175.881S80.294,33.226,80.294,32.736Z" transform="translate(-57.582 -31.072)"/><path class="g" d="M83.916,31.17c1.273,0,1.371.489,1.371.783s-.392.489-.685.587h0c.294,0,.979.2.979.783,0,.392-.489.881-1.468.881H81.762V31.17Zm-.392,1.175c.489,0,.587-.2.587-.294q0-.294-.587-.294h-.587v.587Zm.1,1.273c.2,0,.685,0,.685-.294s-.489-.294-.685-.294h-.587v.587Z" transform="translate(-56.309 -31.072)"/><path class="g" d="M85.678,32.736c0-.783.783-1.566,2.447-1.566s2.447.783,2.447,1.566S89.79,34.3,88.125,34.3,85.678,33.519,85.678,32.736Zm3.622,0c0-.587-.587-.881-1.175-.881s-1.175.294-1.175.881.587.881,1.175.881C88.713,33.519,89.3,33.226,89.3,32.736Z" transform="translate(-55.33 -31.072)"/><path class="g" d="M92.785,32.442v.587H90.534v-.685h2.252Z" transform="translate(-54.117 -30.778)"/><path class="g" d="M93.275,32.736c0-.783.783-1.566,2.447-1.566s2.447.783,2.447,1.566S97.386,34.3,95.722,34.3,93.275,33.519,93.275,32.736Zm3.622,0c0-.587-.587-.881-1.175-.881s-1.175.294-1.175.881.587.881,1.175.881C96.309,33.519,96.9,33.226,96.9,32.736Z" transform="translate(-53.431 -31.072)"/><path class="g" d="M100.284,33.735c-.783,0-2.154-.1-2.154-1.175s1.371-1.175,2.154-1.175v-.294h1.273v.294c.783,0,2.154.2,2.154,1.175,0,1.077-1.371,1.175-2.154,1.175v.392h-1.273Zm.1-1.762c-.294,0-.979.1-.979.587s.685.587.979.587Zm1.077,1.175c.294,0,.979-.1.979-.587s-.685-.587-.979-.587Z" transform="translate(-52.217 -31.092)"/><path class="g" d="M104.885,31.189v1.762l1.762-1.762h1.273v3.035h-1.273v-1.86l-1.762,1.762h-1.273V31.092h1.273Z" transform="translate(-50.847 -31.092)"/><path class="g" d="M111.7,34.028a2.891,2.891,0,0,1-1.273.2c-1.371,0-2.349-.587-2.349-1.566s1.077-1.566,2.349-1.566a5.729,5.729,0,0,1,1.273.2v.881a1.565,1.565,0,0,0-1.077-.392c-.685,0-1.175.392-1.175.881s.489.783,1.175.783a2.38,2.38,0,0,0,1.077-.294Z" transform="translate(-49.731 -31.092)"/><path class="g" d="M112.07,31.17h1.273v1.077h1.566V31.17h1.273V34.2h-1.273V33.03h-1.566V34.2H112.07V31.17Z" transform="translate(-48.732 -31.072)"/><path class="g" d="M116.535,31.17h1.273v1.175h.685c.685,0,1.86.1,1.86.881s-1.175.881-1.86.881h-1.958Zm1.86,2.447c.392,0,.685-.1.685-.294s-.2-.294-.685-.294h-.587v.587Zm2.252-2.447h1.273V34.2h-1.273Z" transform="translate(-47.616 -31.072)"/><path class="g" d="M123.27,31.189v1.762l1.762-1.762H126.3v3.035H125.13v-1.86l-1.762,1.762h-1.273V31.092h1.175Zm1.273,0-.881.881v-.881Z" transform="translate(-46.226 -31.092)"/><path class="g" d="M128.439,31.17h1.273v2.252h1.566V31.17h1.273v2.252h.587v.685h-4.7Z" transform="translate(-44.64 -31.072)"/><path class="g" d="M133.059,31.17H135.8v.685h-1.468v.489h1.37v.685h-1.37v.489H135.8V34.2h-2.741Z" transform="translate(-43.485 -31.072)"/><path class="g" d="M136.427,31.17H137.7v1.077h1.566V31.17h1.273V34.2h-1.273V33.03H137.7V34.2h-1.273Z" transform="translate(-42.643 -31.072)"/><path class="g" d="M141.635,31.933h-.979v-.685h3.328v.685h-.979v2.252h-1.273V31.933Z" transform="translate(-41.586 -31.052)"/><path class="g" d="M144.18,31.17h1.958c1.273,0,1.664.587,1.664.979s-.392.979-1.664.979h-.685v.979H144.18Zm1.273,1.371h.392c.587,0,.587-.2.587-.392s-.1-.294-.587-.294h-.392Z" transform="translate(-40.705 -31.072)"/></g><path class="h" d="M74.42,44.19h9.594l1.468-1.468H72.952V58.776l1.468-1.468ZM91.65,56.623a7.027,7.027,0,0,0-2.839-6.07,1.719,1.719,0,0,0,.489-.392,7.385,7.385,0,0,0,2.056-5.384h0a7.952,7.952,0,0,0-2.349-6.167l-.979,1.175a6.346,6.346,0,0,1,1.86,4.993,5.618,5.618,0,0,1-5.874,5.972c2.937.1,6.167,1.175,6.167,5.874,0,3.818-1.371,5.972-3.916,5.972H68.742l-1.468,1.468h19.09a4.957,4.957,0,0,0,3.524-1.371c1.273-1.273,1.86-3.231,1.86-5.972C91.65,56.721,91.65,56.721,91.65,56.623Zm-6.07-4.014H77.259L75.79,54.077h8.321Z" transform="translate(8.889 -11.884)"/><path class="h" d="M111.287,42.447a4.622,4.622,0,0,0-1.664-3.916l-1.077,1.077a3.287,3.287,0,0,1,1.273,2.839v8.223c0,.881-.2,3.916-3.328,3.916H93.177v8.125H88.869L87.4,64.18h7.342V56.055H106.49c3.622,0,4.895-2.937,4.895-5.482ZM94.645,49.3V44.209h9.3l1.468-1.468H93.079v8.027Z" transform="translate(13.921 -11.904)"/><path class="h" d="M130.024,39.158V62.849h-4.307l-1.468,1.468h7.342V37.592ZM114.851,51.787V37.592l-1.468,1.468V56.877Zm10.866-6.755s-11.16,16.642-11.845,17.817h-4.8l-1.468,1.468h7.146l.392-.685c.392-.685,5.188-7.832,9.1-13.607Z" transform="translate(18.972 -12.139)"/><path class="i" d="M164.973,44.64H152.638V60.7l1.468-1.468V46.207h9.3Zm5.776-8.517c0-.783.2-3.328-1.468-5.091l-.1-.1-1.077,1.077c1.468,1.371,1.175,3.916,1.175,4.209V64.513H152.247a4.557,4.557,0,0,1-2.741-.783l-1.175.979a5.435,5.435,0,0,0,3.916,1.371h18.6c-.1-.1-.1-29.858-.1-29.956Zm-5.776-1.566h-13.02l-1.468,1.468H163.5Z" transform="translate(29.153 -13.803)"/><path class="j" d="M183.24,32.991v3.524H76.437A44.952,44.952,0,0,0,68.9,37.69,48.027,48.027,0,0,0,42.271,55.8c-.979-.685-1.958-1.371-3.035-2.056l-2.154.392,5.482,3.818.881-1.175A46.621,46.621,0,0,1,69.192,39.256a48.466,48.466,0,0,1,7.244-1.175H184.709V31.522Zm-118.453.587,2.741.685-1.371-1.468A30.849,30.849,0,0,0,13.784,44.738H8.3L6.344,46.207H14.86l.294-1.077A29.792,29.792,0,0,1,43.348,24.18,29.356,29.356,0,0,1,64.787,33.578Z" transform="translate(-6.344 -15.859)"/><path class="h" d="M73.656,43.544l-1.371.294A37.061,37.061,0,0,0,50.651,58.032c-.979-.685-2.056-1.371-3.035-2.154l-2.154.392,5.482,3.818.881-1.175A35.956,35.956,0,0,1,72.384,45.306Zm5.776-4.7-.392-1.175s-1.077,1.664-1.077,1.566A36.874,36.874,0,0,1,79.628,50,36.265,36.265,0,0,1,8.458,60.088L6.5,58.62l.587,1.958A37.607,37.607,0,0,0,43.407,88.086,37.915,37.915,0,0,0,81.194,50.1,44.929,44.929,0,0,0,79.432,38.845Z" transform="translate(-6.304 -12.119)"/><path class="h" d="M133.647,47.186l1.468-1.468V37.69l-1.468,1.468ZM137.171,51h-3.426V62.849h-4.307l-1.468,1.468h7.342V52.472h1.958a4.09,4.09,0,0,1,1.762.294.211.211,0,0,1,.2.2l1.077-1.077a2.141,2.141,0,0,0-.489-.294A5.284,5.284,0,0,0,137.171,51Zm9.4.685a6.072,6.072,0,0,0-2.154-2.741,6.588,6.588,0,0,0,1.371-1.468c.587-.881,4.21-6.951,4.6-7.636l1.371-2.252-2.643,1.468s-3.916,6.657-4.5,7.538a6.4,6.4,0,0,1-4.7,2.447c1.762.1,4.307.587,5.286,3.133.294.685,3.916,10.671,3.916,10.671h-4.993l-1.077,1.468h8.223l-.783-2.056C150.387,61.968,146.862,52.374,146.569,51.689Z" transform="translate(24.063 -12.139)"/></g></g></svg>