<svg id="меню_иконка-24px" data-name="меню иконка-24px" xmlns="http://www.w3.org/2000/svg" width="24" height="24" viewBox="0 0 24 24">
  <path id="Path_697" data-name="Path 697" d="M0,0H24V24H0Z" fill="none"/>
  <path id="Path_698" data-name="Path 698" d="M6,1A2,2,0,1,0,8,3,2.006,2.006,0,0,0,6,1ZM18,5a2,2,0,1,0-2-2A2.006,2.006,0,0,0,18,5Zm-6,8a2,2,0,1,0,2,2A2.006,2.006,0,0,0,12,13Zm3-6a2,2,0,1,0,2,2A2.006,2.006,0,0,0,15,7ZM9,7a2,2,0,1,0,2,2A2.006,2.006,0,0,0,9,7Zm3-6a2,2,0,1,0,2,2A2.006,2.006,0,0,0,12,1Z" transform="translate(0 3)" fill="#f9f9fa"/>
</svg>
