<svg id="меню_иконка-24px" data-name="меню иконка-24px" xmlns="http://www.w3.org/2000/svg" width="24" height="24" viewBox="0 0 24 24">
  <path id="Path_697" data-name="Path 697" d="M0,0H24V24H0Z" fill="none"/>
  <path id="соцсети" d="M8.567-1.826A4.411,4.411,0,0,0,9.629-2.7a.937.937,0,0,0,.031-.967.931.931,0,0,0-.625-.5,1.276,1.276,0,0,0-1.094.312l-.375.25a7.249,7.249,0,0,1-1,.437,5.888,5.888,0,0,1-1.593.218A5.888,5.888,0,0,1,3.38-3.168a7.249,7.249,0,0,1-1-.437l-.375-.25A1.231,1.231,0,0,0,.943-4.167a.85.85,0,0,0-.625.5.9.9,0,0,0,0,.967,4.411,4.411,0,0,0,1.062.874,6.391,6.391,0,0,0,2.843.843L1.193,2.044a.8.8,0,0,0-.25.921,1.123,1.123,0,0,0,.719.7A.84.84,0,0,0,2.6,3.448L4.974,1.076l2.406,2.4a.8.8,0,0,0,.922.2A1.171,1.171,0,0,0,9,2.965a.818.818,0,0,0-.219-.921L5.755-.983A6.512,6.512,0,0,0,8.567-1.826ZM.912-8.193A3.871,3.871,0,0,0,1.459-6.18,4.092,4.092,0,0,0,2.943-4.713a3.964,3.964,0,0,0,2.031.546A3.964,3.964,0,0,0,7-4.713,4.092,4.092,0,0,0,8.488-6.18a3.9,3.9,0,0,0,.547-2.029,3.9,3.9,0,0,0-.547-2.029A4.092,4.092,0,0,0,7-11.7a3.964,3.964,0,0,0-2.031-.546,3.964,3.964,0,0,0-2.031.546,4.092,4.092,0,0,0-1.484,1.467A3.928,3.928,0,0,0,.912-8.193Zm2.062,0a1.9,1.9,0,0,1,.594-1.42,1.949,1.949,0,0,1,1.406-.577,1.949,1.949,0,0,1,1.406.577,1.885,1.885,0,0,1,.594,1.4A1.885,1.885,0,0,1,6.38-6.8a1.949,1.949,0,0,1-1.406.577A1.949,1.949,0,0,1,3.568-6.8,1.868,1.868,0,0,1,2.974-8.193Z" transform="translate(6.821 16.25)" fill="#b2b2b2"/>
</svg>
