<svg xmlns="http://www.w3.org/2000/svg" width="8.762" height="14" viewBox="0 0 8.762 14">
  <path id="Path_17437" data-name="Path 17437" d="M5.687-9.625a1.266,1.266,0,0,1-.93-.383,1.266,1.266,0,0,1-.383-.93,1.266,1.266,0,0,1,.383-.93,1.266,1.266,0,0,1,.93-.383,1.266,1.266,0,0,1,.93.383,1.266,1.266,0,0,1,.383.93,1.266,1.266,0,0,1-.383.93A1.266,1.266,0,0,1,5.687-9.625Zm2.6,4.074a.9.9,0,0,1,.424.506.82.82,0,0,1-.041.67.829.829,0,0,1-.506.437.86.86,0,0,1-.67-.055l-.629-.3A1.779,1.779,0,0,1,5.988-5.3L5.852-5.77,5.387-3.883l1.23,1.367a1.555,1.555,0,0,1,.41.738l.6,2.434a.9.9,0,0,1-.1.67.791.791,0,0,1-.533.4.9.9,0,0,1-.67-.1.791.791,0,0,1-.4-.533L5.441-.93a1.747,1.747,0,0,0-.41-.738l-1.641-1.8a1.742,1.742,0,0,1-.41-.752,1.723,1.723,0,0,1,0-.861l.41-1.641-.711.3a.745.745,0,0,0-.465.41l-.191.383a.9.9,0,0,1-.506.424A.786.786,0,0,1,.861-5.25a.836.836,0,0,1-.424-.506.86.86,0,0,1,.055-.67l.164-.383A2.568,2.568,0,0,1,2.023-8.066L2.379-8.2q.738-.3,1.066-.41A4.6,4.6,0,0,1,4.566-8.75a2.8,2.8,0,0,1,1.723.574,3.142,3.142,0,0,1,1.094,1.5l.246.793ZM2.023-1.7,2.57-3.117l.082.137q.055.055.684.738l.547.6L3.5-.711a1.761,1.761,0,0,1-.383.574L1.5,1.5a.913.913,0,0,1-.629.246A.841.841,0,0,1,.26,1.49.841.841,0,0,1,0,.875.913.913,0,0,1,.246.246L1.613-1.121A1.586,1.586,0,0,0,2.023-1.7Z" transform="translate(0 12.25)" fill="#606e79"/>
</svg>
