<?xml version="1.0" encoding="utf-8"?>
<!-- Generator: Adobe Illustrator 22.1.0, SVG Export Plug-In . SVG Version: 6.00 Build 0)  -->
<svg version="1.1" id="floor_plan_icon_1_" xmlns="http://www.w3.org/2000/svg" xmlns:xlink="http://www.w3.org/1999/xlink" x="0px"
	 y="0px" viewBox="0 0 42 42" style="enable-background:new 0 0 42 42;" xml:space="preserve">
<style type="text/css">
	.st0{fill:#26ACA3;}
	.st1{fill:#D8242F;}
</style>
<path class="st0" d="M41,0C41,0,41,0,41,0C41,0,41,0,41,0H1C0.4,0,0,0.4,0,1v40c0,0.6,0.4,1,1,1h5c0.6,0,1-0.4,1-1s-0.4-1-1-1H2V18
	h4c0.6,0,1-0.4,1-1s-0.4-1-1-1H2V2h18v14h-4c-0.6,0-1,0.4-1,1s0.4,1,1,1h10c0.6,0,1-0.4,1-1s-0.4-1-1-1h-4V2h18v14h-4
	c-0.6,0-1,0.4-1,1s0.4,1,1,1h4v22H17v-9c0-0.6-0.4-1-1-1s-1,0.4-1,1v10c0,0.6,0.4,1,1,1h25c0,0,0,0,0,0s0,0,0,0c0.6,0,1-0.4,1-1V1
	C42,0.4,41.6,0,41,0z"/>
<g id="Path_15022">
	<path class="st1" d="M29,25c-2.2,0-4,1.8-4,4s1.8,4,4,4s4-1.8,4-4S31.2,25,29,25z M29,31.3c-1.3,0-2.3-1-2.3-2.3s1-2.3,2.3-2.3
		c1.3,0,2.3,1,2.3,2.3l0,0C31.3,30.3,30.3,31.3,29,31.3z"/>
</g>
<g id="Path_15026">
	<path class="st1" d="M29,28.2c-0.5,0-0.8,0.4-0.8,0.8c0,0.5,0.4,0.8,0.8,0.8c0.5,0,0.8-0.4,0.8-0.8C29.8,28.5,29.5,28.2,29,28.2
		C29,28.2,29,28.2,29,28.2z"/>
</g>
</svg>
