<svg xmlns="http://www.w3.org/2000/svg" width="124.772" height="55.999" viewBox="0 0 124.772 55.999">
  <g id="QED_лого" data-name="QED лого" transform="translate(-141.676 -455.906)">
    <path id="Path_17745" data-name="Path 17745" d="M143.132,493.376v2.208a1.3,1.3,0,0,0,1.42,1.483,2.518,2.518,0,0,0,1.337-.4v-3.292h.871v6.931h-.871v-2.944h-.018a3.216,3.216,0,0,1-1.618.43,1.835,1.835,0,0,1-1.989-2.066v-2.351Z" transform="translate(0.151 9.615)" fill="#26aca3"/>
    <path id="Path_17746" data-name="Path 17746" d="M150.505,494.921v.706H149v4.242h-.88v-4.242h-1.509v-.706Z" transform="translate(1.266 10.011)" fill="#26aca3"/>
    <path id="Path_17747" data-name="Path 17747" d="M154.784,497.375A2.4,2.4,0,0,1,152.376,500a2.335,2.335,0,0,1-2.318-2.547,2.4,2.4,0,0,1,2.4-2.618,2.319,2.319,0,0,1,2.328,2.536m-3.828.052c0,1.083.6,1.9,1.459,1.9.839,0,1.469-.807,1.469-1.921,0-.838-.41-1.891-1.449-1.891s-1.479.981-1.479,1.911" transform="translate(2.151 9.99)" fill="#26aca3"/>
    <path id="Path_17748" data-name="Path 17748" d="M157.435,494.921v2.086c0,.777-.02,1.277-.06,1.983l.031.011c.3-.6.459-.951.788-1.524l1.51-2.556h1.028v4.949h-.838v-2.1c0-.808.019-1.227.059-2.034h-.02c-.32.645-.52,1.042-.809,1.543-.459.768-1,1.719-1.508,2.587H156.6v-4.949Z" transform="translate(3.828 10.011)" fill="#26aca3"/>
    <path id="Path_17749" data-name="Path 17749" d="M166.34,494.921v.706h-1.508v4.242h-.88v-4.242h-1.509v-.706Z" transform="translate(5.329 10.011)" fill="#26aca3"/>
    <path id="Path_17750" data-name="Path 17750" d="M166.283,496.558c0-.633-.021-1.145-.041-1.615h.779l.052.848h.019a1.876,1.876,0,0,1,1.719-.951,2.222,2.222,0,0,1,2.058,2.506c0,1.778-1.069,2.658-2.208,2.658a1.682,1.682,0,0,1-1.488-.778h-.021v2.689h-.868Zm.868,1.319a1.417,1.417,0,0,0,.04.367,1.361,1.361,0,0,0,1.319,1.053c.929,0,1.469-.777,1.469-1.911,0-.98-.509-1.83-1.44-1.83a1.39,1.39,0,0,0-1.328,1.1,1.417,1.417,0,0,0-.06.357Z" transform="translate(6.304 9.991)" fill="#26aca3"/>
    <path id="Path_17751" data-name="Path 17751" d="M171.474,497.581a1.563,1.563,0,0,0,1.66,1.717,3.062,3.062,0,0,0,1.338-.255l.16.643a3.838,3.838,0,0,1-1.618.318,2.282,2.282,0,0,1-2.379-2.5,2.375,2.375,0,0,1,2.268-2.659,2.068,2.068,0,0,1,2,2.321,2.227,2.227,0,0,1-.03.42Zm2.579-.645a1.27,1.27,0,0,0-1.219-1.451,1.46,1.46,0,0,0-1.35,1.451Z" transform="translate(7.431 9.991)" fill="#26aca3"/>
    <path id="Path_17752" data-name="Path 17752" d="M178.779,493.741a6.252,6.252,0,0,1-1.01.225,2.383,2.383,0,0,0-1.729.93,3.637,3.637,0,0,0-.529,1.635h.031a1.835,1.835,0,0,1,1.689-1.113c1.189,0,2.057.87,2.057,2.444,0,1.615-.819,2.626-2.238,2.626-1.7,0-2.258-1.678-2.258-3.322a4.452,4.452,0,0,1,.75-2.739,2.814,2.814,0,0,1,2.077-1.166,9.036,9.036,0,0,0,1.2-.266Zm-1.729,2.341a1.2,1.2,0,0,0-1.1.675,2.218,2.218,0,0,0-.239,1.053c0,.817.4,2,1.36,2,.979,0,1.327-.97,1.327-1.891,0-.8-.309-1.84-1.348-1.84" transform="translate(8.498 9.517)" fill="#26aca3"/>
    <path id="Path_17753" data-name="Path 17753" d="M183.816,497.375A2.4,2.4,0,0,1,181.409,500a2.336,2.336,0,0,1-2.32-2.547,2.4,2.4,0,0,1,2.4-2.618,2.319,2.319,0,0,1,2.33,2.536m-3.828.052c0,1.083.6,1.9,1.459,1.9.839,0,1.469-.807,1.469-1.921,0-.838-.41-1.891-1.449-1.891s-1.479.981-1.479,1.911" transform="translate(9.6 9.99)" fill="#26aca3"/>
    <path id="Path_17754" data-name="Path 17754" d="M183.826,494.993a10.256,10.256,0,0,1,1.538-.112c.819,0,2.159.143,2.159,1.236a1.174,1.174,0,0,1-1.009,1.126v.019c.709.1,1.229.5,1.229,1.218,0,1.3-1.6,1.461-2.548,1.461-.539,0-1.11-.041-1.368-.062Zm.838,4.3c.25.021.43.031.7.031.6,0,1.479-.133,1.479-.86s-.71-.868-1.539-.868h-.64Zm.011-2.28h.658c.65,0,1.318-.195,1.318-.787,0-.491-.418-.726-1.3-.726a5.82,5.82,0,0,0-.68.041Z" transform="translate(10.816 10.001)" fill="#26aca3"/>
    <path id="Path_17755" data-name="Path 17755" d="M191.416,498.7a8.676,8.676,0,0,0,.068,1.187H190.7l-.07-.624h-.03a1.784,1.784,0,0,1-1.478.738,1.393,1.393,0,0,1-1.479-1.423c0-1.195,1.038-1.85,2.907-1.841v-.1a1,1,0,0,0-1.1-1.134,2.284,2.284,0,0,0-1.268.368l-.2-.6a3.094,3.094,0,0,1,1.6-.43c1.479,0,1.838,1.034,1.838,2.014Zm-.85-1.338c-.959-.02-2.048.155-2.048,1.115a.778.778,0,0,0,.818.858,1.225,1.225,0,0,0,1.19-.828,1.078,1.078,0,0,0,.04-.285Z" transform="translate(11.794 9.991)" fill="#26aca3"/>
    <path id="Path_17756" data-name="Path 17756" d="M195.72,494.921v4.949h-.878v-4.242h-1.66v1.267c0,1.39-.129,2.321-.759,2.739a1.386,1.386,0,0,1-.96.308l-.089-.706a1.06,1.06,0,0,0,.48-.2c.45-.338.5-1.033.5-2.137v-1.973Z" transform="translate(12.752 10.011)" fill="#26aca3"/>
    <path id="Path_17757" data-name="Path 17757" d="M200.533,497.375A2.4,2.4,0,0,1,198.125,500a2.335,2.335,0,0,1-2.318-2.547,2.4,2.4,0,0,1,2.4-2.618,2.319,2.319,0,0,1,2.33,2.536m-3.828.052c0,1.083.6,1.9,1.459,1.9.839,0,1.469-.807,1.469-1.921,0-.838-.41-1.891-1.449-1.891s-1.479.981-1.479,1.911" transform="translate(13.89 9.99)" fill="#26aca3"/>
    <path id="Path_17758" data-name="Path 17758" d="M204.085,499.717A3.327,3.327,0,0,1,202.7,500a2.326,2.326,0,0,1-2.409-2.526,2.5,2.5,0,0,1,2.6-2.639,2.715,2.715,0,0,1,1.219.266l-.2.685a2.109,2.109,0,0,0-1.017-.235,1.7,1.7,0,0,0-1.709,1.871,1.679,1.679,0,0,0,1.678,1.85,2.457,2.457,0,0,0,1.079-.235Z" transform="translate(15.04 9.991)" fill="#26aca3"/>
    <path id="Path_17759" data-name="Path 17759" d="M205.1,494.921v1.666a6.433,6.433,0,0,1,.8-.05c1.088,0,2.238.357,2.238,1.676a1.417,1.417,0,0,1-.51,1.135,3.331,3.331,0,0,1-2.109.572,12.161,12.161,0,0,1-1.3-.07v-4.928Zm-.01,4.314a3.876,3.876,0,0,0,.66.042c.65,0,1.509-.225,1.509-1.043,0-.858-.881-1.053-1.539-1.053a3.167,3.167,0,0,0-.63.062Z" transform="translate(16.049 10.011)" fill="#26aca3"/>
    <path id="Path_17760" data-name="Path 17760" d="M214,494.922V499.2l.5.009-.052,2.229h-.687l-.041-1.563h-3.348l-.049,1.563h-.68l-.04-2.218.41-.02a3.889,3.889,0,0,0,.479-1.013,6.68,6.68,0,0,0,.281-1.973v-1.288Zm-2.458,1.493a6.326,6.326,0,0,1-.25,1.85,4.727,4.727,0,0,1-.379.92h2.228v-3.579h-1.6Z" transform="translate(17.431 10.012)" fill="#26aca3"/>
    <path id="Path_17761" data-name="Path 17761" d="M218.871,497.375A2.4,2.4,0,0,1,216.463,500a2.335,2.335,0,0,1-2.318-2.547,2.4,2.4,0,0,1,2.4-2.618,2.319,2.319,0,0,1,2.33,2.536m-3.828.052c0,1.083.6,1.9,1.459,1.9.839,0,1.469-.807,1.469-1.921,0-.838-.41-1.891-1.449-1.891s-1.479.981-1.479,1.911" transform="translate(18.596 9.99)" fill="#26aca3"/>
    <path id="Path_17762" data-name="Path 17762" d="M219.774,494.921v2.148h.21l1.808-2.148h1.069l-2.1,2.228c.78.093,1.25.625,1.63,1.514a10.285,10.285,0,0,0,.51,1.206h-.919a7.707,7.707,0,0,1-.452-1.013,1.565,1.565,0,0,0-1.587-1.164h-.17v2.176h-.87v-4.949Z" transform="translate(19.817 10.011)" fill="#26aca3"/>
    <path id="Path_17763" data-name="Path 17763" d="M226.383,498.7a8.659,8.659,0,0,0,.069,1.187h-.788l-.07-.624h-.031a1.784,1.784,0,0,1-1.478.738,1.393,1.393,0,0,1-1.479-1.423c0-1.195,1.039-1.85,2.908-1.841v-.1a1,1,0,0,0-1.1-1.134,2.281,2.281,0,0,0-1.268.368l-.2-.6a3.088,3.088,0,0,1,1.6-.43c1.48,0,1.84,1.034,1.84,2.014Zm-.849-1.338c-.96-.02-2.048.155-2.048,1.115a.778.778,0,0,0,.818.858,1.224,1.224,0,0,0,1.19-.828,1.077,1.077,0,0,0,.04-.285Z" transform="translate(20.767 9.991)" fill="#26aca3"/>
    <path id="Path_17764" data-name="Path 17764" d="M227.35,497.018h.42c.739,0,1.238-.348,1.238-.808,0-.44-.388-.725-.94-.725a2.294,2.294,0,0,0-1.167.357l-.22-.552a3.018,3.018,0,0,1,1.608-.45c.74,0,1.639.338,1.639,1.3a1.246,1.246,0,0,1-1.088,1.125v.02a1.3,1.3,0,0,1,1.318,1.238c0,1.063-1.069,1.473-2.09,1.473a3.274,3.274,0,0,1-1.568-.4l.23-.613a2.653,2.653,0,0,0,1.278.347c.729,0,1.19-.357,1.19-.848,0-.665-.677-.848-1.409-.848h-.431Z" transform="translate(21.766 9.991)" fill="#26aca3"/>
    <path id="Path_17765" data-name="Path 17765" d="M233.877,498.7a8.47,8.47,0,0,0,.069,1.187h-.789l-.069-.624h-.031a1.788,1.788,0,0,1-1.478.738,1.4,1.4,0,0,1-1.48-1.423c0-1.195,1.039-1.85,2.908-1.841v-.1a1,1,0,0,0-1.1-1.134,2.274,2.274,0,0,0-1.267.368l-.2-.6a3.093,3.093,0,0,1,1.6-.43c1.48,0,1.84,1.034,1.84,2.014Zm-.849-1.338c-.96-.02-2.049.155-2.049,1.115a.779.779,0,0,0,.819.858,1.224,1.224,0,0,0,1.19-.828,1.078,1.078,0,0,0,.04-.285Z" transform="translate(22.689 9.991)" fill="#26aca3"/>
    <path id="Path_17766" data-name="Path 17766" d="M237.69,494.921v.706h-1.508v4.242h-.88v-4.242h-1.509v-.706Z" transform="translate(23.637 10.011)" fill="#26aca3"/>
    <path id="Path_17767" data-name="Path 17767" d="M238.48,494.921v1.666a6.434,6.434,0,0,1,.8-.05c1.088,0,2.237.357,2.237,1.676a1.416,1.416,0,0,1-.509,1.135,3.334,3.334,0,0,1-2.109.572,12.185,12.185,0,0,1-1.3-.07v-4.928Zm-.01,4.314a3.87,3.87,0,0,0,.658.042c.65,0,1.509-.225,1.509-1.043,0-.858-.88-1.053-1.539-1.053a3.164,3.164,0,0,0-.628.062Z" transform="translate(24.614 10.011)" fill="#26aca3"/>
    <path id="Path_17768" data-name="Path 17768" d="M175.807,499.165c-5.21-1.323-10.308-2.811-14.775-4.3a8.027,8.027,0,0,0-2.349-.552c-9.218-.33-17.007-6.833-17.007-18.845,0-11.9,7.5-19.564,17.925-19.564,10.537,0,17.35,7.826,17.35,18.792,0,9.588-4.58,15.65-11,17.853v.221c3.838.937,8.017,1.82,11.283,2.37Zm-4.123-24.191c0-7.494-4.009-15.156-12.2-15.156-8.418,0-12.541,7.5-12.541,15.542,0,7.935,4.466,15.044,12.369,15.044s12.37-7,12.37-15.43" transform="translate(0 0)" fill="#26aca3"/>
    <path id="Path_17769" data-name="Path 17769" d="M170.931,484.418a3.349,3.349,0,0,1,3.436-3.472,3.273,3.273,0,0,1,3.379,3.472,3.331,3.331,0,0,1-3.493,3.471,3.29,3.29,0,0,1-3.321-3.471" transform="translate(7.507 6.425)" fill="#26aca3"/>
    <path id="Path_17770" data-name="Path 17770" d="M200.076,476.16H185.129v13.39h16.723v4.022H180.091v-37.14h20.9v4.022H185.129v11.737h14.947Z" transform="translate(9.857 0.135)" fill="#26aca3"/>
    <path id="Path_17771" data-name="Path 17771" d="M199.958,484.418a3.349,3.349,0,0,1,3.436-3.472,3.273,3.273,0,0,1,3.379,3.472,3.33,3.33,0,0,1-3.492,3.471,3.29,3.29,0,0,1-3.322-3.471" transform="translate(14.955 6.425)" fill="#26aca3"/>
    <path id="Path_17772" data-name="Path 17772" d="M209.162,457.04a66.327,66.327,0,0,1,10.594-.828c7.159,0,12.254,1.654,15.633,4.629,3.493,3.031,5.5,7.33,5.5,13.336,0,6.062-2,11.022-5.554,14.437-3.665,3.472-9.622,5.346-17.124,5.346a82.867,82.867,0,0,1-9.048-.44Zm4.982,32.843a42.927,42.927,0,0,0,5.04.22c10.708,0,16.435-5.731,16.435-15.76.057-8.761-5.1-14.327-15.636-14.327a29.315,29.315,0,0,0-5.839.5Z" transform="translate(17.317 0.078)" fill="#26aca3"/>
    <path id="Path_17773" data-name="Path 17773" d="M235.546,484.418a3.349,3.349,0,0,1,3.436-3.472,3.273,3.273,0,0,1,3.379,3.472,3.331,3.331,0,0,1-3.493,3.471,3.29,3.29,0,0,1-3.321-3.471" transform="translate(24.087 6.425)" fill="#26aca3"/>
  </g>
</svg>
