<svg id="_083-office" data-name="083-office" xmlns="http://www.w3.org/2000/svg" width="120.001" height="76" viewBox="0 0 120.001 76">
  <path id="Union_31" data-name="Union 31" d="M51.14,69.892l-5.424-4.784a30.325,30.325,0,0,1-7.6,3.063l-.58-2.244a27.873,27.873,0,0,0,7.7-3.233,1.174,1.174,0,0,1,1.389.12L51.9,67.46l6.422-5.943-4.3-5.54a1.152,1.152,0,0,1-.033-1.369,28.583,28.583,0,0,0,4.369-9.353,1.167,1.167,0,0,1,1.059-.872l6.971-.431.308-8.742-7.018-.918a1.162,1.162,0,0,1-1-.942,27.753,27.753,0,0,0-3.692-9.617,1.151,1.151,0,0,1,.121-1.378l4.686-5.234-5.9-6.36-5.577,4.267a1.174,1.174,0,0,1-1.38.033,29.039,29.039,0,0,0-9.426-4.335,1.162,1.162,0,0,1-.878-1.052l-.433-7.013-8.807-.305-.924,6.966a1.162,1.162,0,0,1-.95.989,28.237,28.237,0,0,0-9.691,3.663,1.174,1.174,0,0,1-1.39-.12L9.163,9.2,2.734,15.153l5.759,7.555-1.862,1.4L.236,15.718A1.153,1.153,0,0,1,.37,14.172L8.347,6.79a1.175,1.175,0,0,1,1.571-.019l5.425,4.785a30.682,30.682,0,0,1,8.914-3.367l.953-7.182A1.163,1.163,0,0,1,26.408,0L37.336.379a1.162,1.162,0,0,1,1.123,1.087L38.906,8.7a31.336,31.336,0,0,1,8.646,3.982l5.755-4.4a1.175,1.175,0,0,1,1.572.133L62.22,16.32a1.151,1.151,0,0,1,.014,1.554l-4.821,5.383A30.155,30.155,0,0,1,60.805,32.1l7.237.946a1.16,1.16,0,0,1,1.014,1.189l-.382,10.844A1.162,1.162,0,0,1,67.582,46.2l-7.19.447a30.9,30.9,0,0,1-4.012,8.581l4.437,5.713a1.15,1.15,0,0,1-.129,1.553l-7.976,7.382a1.173,1.173,0,0,1-1.571.019Zm-10.959-13.4A19.9,19.9,0,0,0,38.71,20.519a20.243,20.243,0,0,0-21.178,3.276L16,22.048a22.591,22.591,0,0,1,23.636-3.659A22.214,22.214,0,0,1,41.276,58.54Zm0,0h0Z" transform="translate(50.943 3.035)" fill="#26aca3"/>
  <path id="Path_16156" data-name="Path 16156" d="M431.867,274.312a1.167,1.167,0,0,0-1.167,1.167v1.362a1.753,1.753,0,0,1-1.74,1.751h-.046v-3.839a5.065,5.065,0,0,0,3.891-4.921v-5.188a5.058,5.058,0,0,0-10.117,0v5.188a5.067,5.067,0,0,0,3.891,4.921v9.706a1.167,1.167,0,1,0,2.335,0v-3.532h.05a4.093,4.093,0,0,0,4.071-4.086v-1.362A1.167,1.167,0,0,0,431.867,274.312Zm-6.845-4.48v-5.188a2.724,2.724,0,0,1,5.447,0v5.188a2.723,2.723,0,0,1-1.556,2.457v-.973a1.167,1.167,0,0,0-2.335,0v.973A2.723,2.723,0,0,1,425.022,269.832Zm0,0" transform="translate(-340.454 -209.681)" fill="#374047"/>
  <path id="Path_16157" data-name="Path 16157" d="M303.941,173.646V131.718a1.167,1.167,0,0,0-1.167-1.167H277.968a1.167,1.167,0,0,0-1.167,1.167v48.864h2.335V165.959h5.934v14.623H287.4V165.959h5.934v7.606a4.082,4.082,0,1,0,2.335.245v-7.851h5.934v7.729a4.091,4.091,0,1,0,2.335-.042Zm-9.847,5.684a1.751,1.751,0,1,1,1.751-1.751A1.751,1.751,0,0,1,294.094,179.33Zm7.512-23.974h-5.934v-5.934h5.934Zm-8.268-14.2v5.934H287.4v-5.934Zm-5.934-2.335v-5.934h5.934v5.934Zm-2.335,8.268h-5.934v-5.934h5.934Zm0,2.335v5.934h-5.934v-5.934Zm2.335,0h5.934v5.934H287.4Zm14.2-2.335h-5.934v-5.934h5.934Zm0-8.268h-5.934v-5.934h5.934Zm-16.537-5.934v5.934h-5.934v-5.934Zm-5.934,30.739v-5.934h5.934v5.934Zm8.268,0v-5.934h5.934v5.934Zm8.268,0v-5.934h5.934v5.934Zm7.176,15.705a1.751,1.751,0,1,1,1.751-1.751A1.751,1.751,0,0,1,302.848,179.33Zm0,0" transform="translate(-222.949 -105.749)" fill="#374047"/>
  <path id="Path_16158" data-name="Path 16158" d="M92.334,73.983H49.863V10.2A1.163,1.163,0,0,0,48.7,9.042H44.351v-.95H45.94a1.164,1.164,0,0,0,1.167-1.159V1.46A1.163,1.163,0,0,0,45.94.3H18.379A1.163,1.163,0,0,0,17.212,1.46V6.933a1.163,1.163,0,0,0,1.167,1.159h1.588v.95H15.623A1.163,1.163,0,0,0,14.455,10.2V68.268a4.063,4.063,0,0,0-2.6,2.274,4.018,4.018,0,0,0,.1,3.44H10.491a4.038,4.038,0,0,0-1.076-4.988,4.108,4.108,0,0,0-5.137,0A4.037,4.037,0,0,0,3.2,73.983H1.167a1.159,1.159,0,1,0,0,2.318H92.334a1.159,1.159,0,1,0,0-2.318ZM6.846,70.421A1.739,1.739,0,1,1,5.1,72.159,1.744,1.744,0,0,1,6.846,70.421Zm17.51,0a1.739,1.739,0,1,1-1.751,1.739A1.744,1.744,0,0,1,24.356,70.421Zm.7-2.254V60.621h5.934V73.983H28a4.019,4.019,0,0,0,.008-3.646A4.068,4.068,0,0,0,25.058,68.167ZM30.992,11.36v5.892H25.058V11.36ZM47.529,58.3H41.595V52.411h5.934Zm-14.2-24.631V27.781H39.26v5.892Zm5.934,2.318v5.892H33.327V35.991Zm-8.268-2.318H25.058V27.781h5.934Zm0,2.318v5.892H25.058V35.991Zm0,8.21v5.892H25.058V44.2Zm2.335,0H39.26v5.892H33.327Zm5.934,8.21V58.3H33.327V52.411Zm8.268-2.318H41.595V44.2h5.934Zm0-8.21H41.595V35.991h5.934Zm0-8.21H41.595V27.781h5.934Zm0-8.21H41.595V19.571h5.934Zm-8.268,0H33.327V19.571H39.26Zm-5.934-8.21V11.36H39.26v5.892Zm-2.335,2.318v5.892H25.058V19.571Zm-8.268,5.892H16.79V19.571h5.934Zm0,2.318v5.892H16.79V27.781Zm0,8.21v5.892H16.79V35.991Zm0,8.21v5.892H16.79V44.2Zm0,8.21V58.3H16.79V52.411Zm2.335,0h5.934V58.3H25.058Zm8.268,8.21H39.26V73.983H33.327Zm8.268,0h5.934V73.983H41.595Zm5.934-43.369H41.595V11.36h5.934ZM19.546,2.619H44.772V5.774H19.546ZM22.3,8.092H42.017v.95H22.3Zm.422,3.268v5.892H16.79V11.36ZM15.6,70.421a1.739,1.739,0,1,1-1.751,1.739A1.744,1.744,0,0,1,15.6,70.421Zm1.189-2.142V60.621h5.934v7.822a4.03,4.03,0,0,0-2.012,5.54H19.246a4.022,4.022,0,0,0,.113-3.421A4.067,4.067,0,0,0,16.79,68.279Zm0,0" transform="translate(0 -0.301)" fill="#374047"/>
</svg>
