<svg id="_055-mobile" data-name="055-mobile" xmlns="http://www.w3.org/2000/svg" width="52" height="80" viewBox="0 0 52 80">
  <path id="Path_15871" data-name="Path 15871" d="M58.553,57.111V52.89H69.218a6.634,6.634,0,0,0,6.6-6.653V6.653A6.634,6.634,0,0,0,69.218,0H52.387a6.634,6.634,0,0,0-6.6,6.653V22.284L30.582,34.489a.89.89,0,0,0-.09.081,6.75,6.75,0,0,0-1.922,4.736V67.05h1.98V39.305a4.755,4.755,0,0,1,1.314-3.3L45.787,24.835V35.556l-8.865,7.076a1,1,0,0,0,.248,1.713.983.983,0,0,0,.982-.147l13.033-10.4.387.39a3.346,3.346,0,0,1,0,4.7l-6.061,6.11a1,1,0,0,0-.289.648l-.077,1.333c0,.019,0,.038,0,.058a6.77,6.77,0,0,0,.66,2.875,6.873,6.873,0,0,1-.493,6.653.994.994,0,0,0-.166.554v2.88a.99.99,0,1,0,1.98,0V57.4a8.9,8.9,0,0,0,1.19-5.937,6.533,6.533,0,0,0,4.074,1.424h4.186V57.11a4.75,4.75,0,0,1-4.725,4.762.994.994,0,0,0-.99,1v4.179h1.98V63.795A6.751,6.751,0,0,0,58.553,57.111ZM52.387,2H69.218a4.643,4.643,0,0,1,4.62,4.649H47.767A4.643,4.643,0,0,1,52.387,2Zm-.427,29.759a.984.984,0,0,0-1.314-.077l-2.879,2.3V8.64H73.838V39.584H53.56a5.356,5.356,0,0,0-.589-6.811ZM47.767,46.237v-.7L51.7,41.58H73.838v4.657a4.643,4.643,0,0,1-4.62,4.657H52.387A4.644,4.644,0,0,1,47.767,46.237Zm0,0" transform="translate(-23.818)" fill="#374047"/>
  <path id="Path_15872" data-name="Path 15872" d="M208.413,272h-5.231a1,1,0,0,0,0,2h5.231a1,1,0,0,0,0-2Zm0,0" transform="translate(-168.836 -226.761)" fill="#374047"/>
  <g id="Group_1364" data-name="Group 1364" transform="translate(0 13.914)">
    <path id="Path_15873" data-name="Path 15873" d="M32.957,408.424V399.8a2.664,2.664,0,0,0-2.661-2.661H2.661A2.664,2.664,0,0,0,0,399.8v8.626a2.665,2.665,0,0,0,2.661,2.661H30.3A2.665,2.665,0,0,0,32.957,408.424ZM2,408.424V399.8a.665.665,0,0,1,.665-.665H30.3a.665.665,0,0,1,.665.665v8.626a.665.665,0,0,1-.665.665H2.661A.665.665,0,0,1,2,408.424Zm0,0" transform="translate(0 -344.999)" fill="#374047"/>
    <path id="Path_15874" data-name="Path 15874" d="M27.1,420.511a3.231,3.231,0,1,0,3.157,3.23A3.2,3.2,0,0,0,27.1,420.511Zm0,4.464a1.237,1.237,0,1,1,1.162-1.234A1.2,1.2,0,0,1,27.1,424.975Zm0,0" transform="translate(-19.841 -364.485)" fill="#374047"/>
    <path id="Path_16444" data-name="Path 16444" d="M291.2,270.745l4.587,3.37-1.754,5.458A1.012,1.012,0,0,0,295.6,280.7l4.576-3.362,4.576,3.362a1.012,1.012,0,0,0,1.563-1.125l-1.754-5.458,4.587-3.37a1.012,1.012,0,0,0-.6-1.828h-5.657l-1.751-5.449a1.012,1.012,0,0,0-1.926,0l-1.751,5.449H291.8a1.012,1.012,0,0,0-.6,1.828Zm7,.2a1.012,1.012,0,0,0,.964-.7l1.013-3.154,1.013,3.154a1.011,1.011,0,0,0,.963.7h3.31l-2.687,1.975a1.013,1.013,0,0,0-.364,1.125l1.021,3.176-2.656-1.951a1.011,1.011,0,0,0-1.2,0l-2.656,1.951,1.02-3.176a1.013,1.013,0,0,0-.364-1.125l-2.687-1.974Zm0,0" transform="translate(-263.265 -262.766)" fill="#26aca3"/>
  </g>
</svg>
