<svg xmlns="http://www.w3.org/2000/svg" width="79.998" height="80" viewBox="0 0 79.998 80">
  <g id="_060-network" data-name="060-network" transform="translate(-0.022 0.001)">
    <path id="Path_15922" data-name="Path 15922" d="M74.75,34.731a5.278,5.278,0,0,0-5.185,4.33h-7.61a21.875,21.875,0,0,0-5.814-13.915l5.4-5.4a5.264,5.264,0,1,0-1.359-1.4l-5.424,5.424A21.865,21.865,0,0,0,40.834,18.1V10.482a5.272,5.272,0,1,0-1.951-.063v7.693a21.873,21.873,0,0,0-13.739,5.8l-5.394-5.394a5.26,5.26,0,1,0-1.411,1.348l5.43,5.43a21.869,21.869,0,0,0-5.684,13.932H10.509a5.273,5.273,0,1,0-.077,1.951H18.1a21.873,21.873,0,0,0,5.773,13.713l-5.363,5.363a5.265,5.265,0,1,0,1.359,1.4l5.387-5.386a21.87,21.87,0,0,0,13.794,5.7V69.55a5.27,5.27,0,1,0,1.951,0V61.969a21.874,21.874,0,0,0,13.888-5.79l5.367,5.367a5.271,5.271,0,1,0,1.392-1.367L56.264,54.8a21.874,21.874,0,0,0,5.692-13.783h7.623a5.27,5.27,0,1,0,5.172-6.282ZM62.233,13.1a3.318,3.318,0,1,1-.972,2.347A3.318,3.318,0,0,1,62.233,13.1ZM36.7,5.275a3.319,3.319,0,1,1,3.318,3.318A3.319,3.319,0,0,1,36.7,5.275ZM13.122,17.792a3.319,3.319,0,1,1,4.693,0A3.318,3.318,0,0,1,13.122,17.792ZM5.3,43.32A3.319,3.319,0,1,1,8.615,40,3.319,3.319,0,0,1,5.3,43.32ZM17.814,66.9a3.319,3.319,0,1,1-.1-4.787.931.931,0,0,0,.292.3A3.322,3.322,0,0,1,17.814,66.9Zm25.527,7.824a3.319,3.319,0,1,1-3.532-3.308.949.949,0,0,0,.427,0,3.321,3.321,0,0,1,3.106,3.308ZM66.926,62.211a3.322,3.322,0,1,1-2.347-.97A3.323,3.323,0,0,1,66.926,62.211Zm-26.9-2.17a20,20,0,1,1,20-20A20,20,0,0,1,40.023,60.041ZM74.75,43.32A3.319,3.319,0,1,1,78.069,40,3.319,3.319,0,0,1,74.75,43.32Zm0,0" transform="translate(0 0)" fill="#374047"/>
    <path id="Path_15923" data-name="Path 15923" d="M160.653,183.084a.973.973,0,0,0,.574-.187l2.278-1.659v13.6a.976.976,0,0,0,.976.975h18.482a.975.975,0,0,0,.976-.975v-13.6l2.278,1.658a.975.975,0,0,0,1.148-1.577l-3.426-2.5v-4.346a.976.976,0,1,0-1.951,0V177.4l-7.691-5.6a.974.974,0,0,0-1.148,0l-13.069,9.514a.976.976,0,0,0,.575,1.764Zm13.068-9.284,8.265,6.018v14.049H165.456V179.817Zm0,0" transform="translate(-133.698 -143.717)" fill="#26aca3"/>
  </g>
</svg>
