<svg xmlns="http://www.w3.org/2000/svg" width="21.333" height="21.258" viewBox="0 0 21.333 21.258">
  <path id="Path_14576" data-name="Path 14576" d="M6.239,16.83a4.238,4.238,0,0,0,3.179-1.462l5.393,2.7a4.3,4.3,0,1,0,.964-1.9l-5.393-2.691a4.111,4.111,0,0,0,0-1.769l5.393-2.7a4.174,4.174,0,1,0-.964-1.886L9.418,9.816A4.238,4.238,0,1,0,6.239,16.83Zm12.714,0a2.119,2.119,0,1,1-2.119,2.119A2.119,2.119,0,0,1,18.954,16.83Zm0-12.714a2.119,2.119,0,1,1-2.119,2.119A2.119,2.119,0,0,1,18.954,4.116ZM6.239,10.473A2.119,2.119,0,1,1,4.12,12.592,2.119,2.119,0,0,1,6.239,10.473Z" transform="translate(-1.977 -2.055)" fill="#adb4b9"/>
</svg>
