<svg xmlns="http://www.w3.org/2000/svg" width="33.047" height="33.049" viewBox="0 0 33.047 33.049">
  <g id="discount" transform="translate(0.514 0.527)">
    <path id="Path_17525" data-name="Path 17525" d="M30.54,16l1.4-3.662a1,1,0,0,0-.3-1.136L28.6,8.735,27.98,4.861a1,1,0,0,0-.832-.83l-3.874-.616L20.808.37a1,1,0,0,0-1.134-.3L16.01,1.472,12.348.068a1,1,0,0,0-1.134.3L8.747,3.417l-3.874.616a1,1,0,0,0-.83.83L3.427,8.737.381,11.2a1,1,0,0,0-.3,1.134L1.481,16l-1.4,3.662a1,1,0,0,0,.3,1.134l3.046,2.466.616,3.874a1,1,0,0,0,.83.832l3.874.616,2.468,3.044a1,1,0,0,0,1.136.3l3.66-1.4,3.662,1.4a1,1,0,0,0,1.136-.306l2.466-3.044,3.874-.616a1,1,0,0,0,.832-.832l.616-3.874L31.64,20.8a1,1,0,0,0,.3-1.134Z" transform="translate(0 0)" fill="#d92531" stroke="#f9f9fa" stroke-width="1"/>
    <path id="Path_17526" data-name="Path 17526" d="M163.045,134.081a3.023,3.023,0,1,1,3.023-3.023A3.027,3.027,0,0,1,163.045,134.081Zm0-4.031a1.008,1.008,0,1,0,1.008,1.008A1.008,1.008,0,0,0,163.045,130.05Z" transform="translate(-151.512 -118.641)" fill="#fafafa"/>
    <path id="Path_17527" data-name="Path 17527" d="M259.045,294.081a3.023,3.023,0,1,1,3.023-3.023A3.027,3.027,0,0,1,259.045,294.081Zm0-4.031a1.008,1.008,0,1,0,1.008,1.008A1.011,1.011,0,0,0,259.045,290.05Z" transform="translate(-238.557 -271.474)" fill="#fafafa"/>
    <path id="Path_17528" data-name="Path 17528" d="M161.043,144.14a1.007,1.007,0,0,1-.818-1.594L170.3,128.44a1.008,1.008,0,0,1,1.64,1.171l-10.076,14.107A1.012,1.012,0,0,1,161.043,144.14Z" transform="translate(-150.071 -120.079)" fill="#fafafa"/>
  </g>
</svg>
