<svg id="Group_2090" data-name="Group 2090" xmlns="http://www.w3.org/2000/svg" width="18" height="17" viewBox="0 0 18 17">
  <path id="Path_17614" data-name="Path 17614" d="M352.489,2796.912c.833-.087,1.693-.149,2.533-.229,0,.47-.013.928-.026,1.384-.849.092-1.728.2-2.618.3a1.99,1.99,0,0,1-.372.04c-.1-.025-.236-.259-.33-.366-.33-.38-.624-.744-.964-1.085-.272.863-.566,1.7-.841,2.563a11.011,11.011,0,0,0,1.074.558c.174.087.364.177.552.27.318.159.709.309.772.705a8.848,8.848,0,0,1,0,1.18v3.5c-.478-.02-.967-.027-1.461-.027,0-1.259-.021-2.505-.028-3.76-.692-.25-1.379-.458-2.079-.692-.228-.078-.479-.136-.69-.233a1.364,1.364,0,0,1-.786-1.249,3.4,3.4,0,0,1,.248-.99c.294-.911.631-1.9.923-2.8-.638-.266-1.1.113-1.5.366-.639.4-1.333.828-1.956,1.223-.285-.348-.516-.751-.785-1.115.573-.371,1.184-.758,1.817-1.152a3.918,3.918,0,0,1,2.177-.856,5.927,5.927,0,0,1,1.419.285,4.547,4.547,0,0,1,1.321.38c.666.429,1.034,1.253,1.6,1.791" transform="translate(-344.157 -2791.489)" fill="#191000" fill-rule="evenodd"/>
  <path id="Path_17615" data-name="Path 17615" d="M364.64,2804.2H368.3v1.833h-1.832c-.032.587-.005,1.234-.014,1.845H364.64c-.034.582,0,1.227-.015,1.832h-1.818c-.031.583,0,1.226-.013,1.832h-1.832c-.032.588,0,1.237-.014,1.845h-4.585v-1.845H359.1c.032-.582,0-1.225.013-1.832h1.818c.031-.583,0-1.226.013-1.832h1.833c.031-.589,0-1.235.013-1.845h1.831v-1.791c0-.02,0-.04.015-.042" transform="translate(-350.303 -2796.384)" fill="#191000" fill-rule="evenodd"/>
  <path id="Path_17616" data-name="Path 17616" d="M349.278,2809.1a2.883,2.883,0,0,1-.895,1.557c-.217.156-.48.293-.718.44-.688.431-1.419.893-2.106,1.322-.319-.42-.611-.867-.9-1.322.438-.266.9-.575,1.364-.881s.95-.567,1.363-.868a1.507,1.507,0,0,0,.454-.784c.488.17.953.362,1.434.537" transform="translate(-344.403 -2798.465)" fill="#191000" fill-rule="evenodd"/>
  <path id="Path_17617" data-name="Path 17617" d="M354.616,2788.7c-.12.033-.24.069-.36.1a1.633,1.633,0,0,0-.957,1.687,1.575,1.575,0,1,0,1.317-1.787" transform="translate(-348.655 -2788.69)" fill="#191000" fill-rule="evenodd"/>
</svg>
