<svg id="меню_иконка-24px" data-name="меню иконка-24px" xmlns="http://www.w3.org/2000/svg" width="24" height="24" viewBox="0 0 24 24">
  <path id="Path_697" data-name="Path 697" d="M0,0H24V24H0Z" fill="none"/>
  <path id="соцсети" d="M15.955-9.252a1.111,1.111,0,0,0-.178-1.053.8.8,0,0,0-.857-.125L.75-4.969q-.714.286-.75.642t.571.535L4.212-2.649l8.423-5.318a.848.848,0,0,1,.339-.125q.161-.018.214.071t-.089.2L6.282-1.65,6,2.1a.893.893,0,0,0,.464-.107,2.091,2.091,0,0,0,.286-.25L8.531.028,12.207,2.74a.9.9,0,0,0,.839.125,1.047,1.047,0,0,0,.482-.767Z" transform="translate(4.002 15.496)" fill="#b2b2b2"/>
</svg>
