<svg id="baseline-tune-24px" xmlns="http://www.w3.org/2000/svg" width="24" height="24" viewBox="0 0 24 24">
  <path id="Path_881" data-name="Path 881" d="M0,0H24V24H0Z" fill="none"/>
  <path id="Union_26" data-name="Union 26" d="M8222,6976a2,2,0,0,1,3.733-1H8228a1,1,0,0,1,0,2h-2.269a2,2,0,0,1-3.733-1Zm-8,1a1,1,0,1,1,0-2h6a1,1,0,1,1,0,2Zm1.267-5H8214a1,1,0,1,1,0-2h1.267a2,2,0,1,1,0,2Zm6.731,0a1,1,0,0,1,0-2h6a1,1,0,0,1,0,2Zm1-6a2,2,0,0,1,3.73-1H8228a1,1,0,0,1,0,2h-1.27a2,2,0,0,1-3.73-1Zm-9,1a1,1,0,1,1,0-2h6a1,1,0,1,1,0,2Z" transform="translate(-8208.998 -6959.001)" fill="#f9f9fa"/>
</svg>
