<svg id="baseline-tune-24px" xmlns="http://www.w3.org/2000/svg" width="24" height="24" viewBox="0 0 24 24">
  <path id="Path_881" data-name="Path 881" d="M0,0H24V24H0Z" fill="none"/>
  <path id="Union_26" data-name="Union 26" d="M8218,6976a2,2,0,0,1,3.731-1H8228a1,1,0,0,1,0,2h-6.269a2,2,0,0,1-3.731-1Zm-4,1a1,1,0,1,1,0-2h1a1,1,0,1,1,0,2Zm6.267-5H8214a1,1,0,1,1,0-2h6.267a2,2,0,1,1,0,2Zm6.731,0a1,1,0,1,1,0-2h1a1,1,0,0,1,0,2Zm-9-6a2,2,0,0,1,3.731-1H8228a1,1,0,0,1,0,2h-6.269a2,2,0,0,1-3.731-1Zm-4,1a1,1,0,1,1,0-2h1a1,1,0,1,1,0,2Z" transform="translate(-8208.998 -6959.001)" fill="#fff"/>
</svg>
