<svg id="меню_иконка-24px" data-name="меню иконка-24px" xmlns="http://www.w3.org/2000/svg" width="24" height="24" viewBox="0 0 24 24">
  <path id="Path_697" data-name="Path 697" d="M0,0H24V24H0Z" fill="none"/>
  <path id="соцсети" d="M14.344-7.687A7.213,7.213,0,0,0,16-9.406a7.049,7.049,0,0,1-1.875.531,3.256,3.256,0,0,0,1.438-1.812,6.676,6.676,0,0,1-2.094.781,3.711,3.711,0,0,0-1.078-.75,3.131,3.131,0,0,0-1.328-.281,3.169,3.169,0,0,0-1.625.438A3.211,3.211,0,0,0,8.25-9.3a3.253,3.253,0,0,0-.437,1.641,4.555,4.555,0,0,0,.063.75,9.083,9.083,0,0,1-3.766-1,9.048,9.048,0,0,1-2.984-2.438A3.141,3.141,0,0,0,.656-8.7a3.152,3.152,0,0,0,.406,1.578A3.64,3.64,0,0,0,2.125-5.937,3.089,3.089,0,0,1,.656-6.375v.062a3.146,3.146,0,0,0,.75,2.063A3.306,3.306,0,0,0,3.281-3.094,4.165,4.165,0,0,1,2.406-3q-.281,0-.594-.031A3.263,3.263,0,0,0,2.953-1.422a3.052,3.052,0,0,0,1.922.641A6.505,6.505,0,0,1,.781.625Q.344.625,0,.594A9.1,9.1,0,0,0,5.031,2.063,9.016,9.016,0,0,0,10.125.594a8.924,8.924,0,0,0,3.156-3.531,9.266,9.266,0,0,0,1.094-4.344A1.862,1.862,0,0,0,14.344-7.687Z" transform="translate(4 16.938)" fill="#b2b2b2"/>
</svg>
