<svg id="меню_иконка-24px" data-name="меню иконка-24px" xmlns="http://www.w3.org/2000/svg" width="24" height="24" viewBox="0 0 24 24">
  <path id="Path_697" data-name="Path 697" d="M0,0H24V24H0Z" fill="none"/>
  <path id="соцсети" d="M14.56-10.6a5.433,5.433,0,0,1,1.549,2.938,15.967,15.967,0,0,1,.1,5.182,5.387,5.387,0,0,1-1.813,3.664,5.534,5.534,0,0,1-2.143.99l-.2.033a8.855,8.855,0,0,1-1.582.3,16.248,16.248,0,0,1-3.428.1q-.692.759-.989,1.089l-.264.3a5.692,5.692,0,0,1-.527.528.71.71,0,0,1-.626.1.449.449,0,0,1-.28-.248,1.517,1.517,0,0,1-.115-.38V2.075A4.84,4.84,0,0,1,1.441.161,6.867,6.867,0,0,1,.485-2.678a13.5,13.5,0,0,1-.1-2.641,11.305,11.305,0,0,1,.4-2.971A5.076,5.076,0,0,1,2.034-10.5a5.69,5.69,0,0,1,1.978-1.122,11.342,11.342,0,0,1,2.175-.5,11.457,11.457,0,0,1,1.747-.132h.725a12.635,12.635,0,0,1,4.219.693A5.645,5.645,0,0,1,14.56-10.6Zm.461,7.823A13.3,13.3,0,0,0,14.955-7.2,4.422,4.422,0,0,0,13.67-9.741a4.008,4.008,0,0,0-1.45-.759,11.837,11.837,0,0,0-3.626-.561H7.967a10.952,10.952,0,0,0-1.483.1,10.448,10.448,0,0,0-1.846.4,4.592,4.592,0,0,0-1.648.957A4.264,4.264,0,0,0,1.9-7.761a9.787,9.787,0,0,0-.33,2.476v.2a15.963,15.963,0,0,0,.066,2.212A5.736,5.736,0,0,0,2.43-.565,4.053,4.053,0,0,0,4.7.986h0L4.671,3.825q0,.231.115.281t.28-.116Q5.4,3.66,6.385,2.5l.923-1.122a14.6,14.6,0,0,0,2.934-.1,9.724,9.724,0,0,0,1.384-.264l.2-.033A4.427,4.427,0,0,0,13.538.194,4.392,4.392,0,0,0,15.021-2.777ZM10.439-5.45q0,.231-.214.231t-.214-.2A1.06,1.06,0,0,0,8.923-6.54q-.2,0-.181-.215t.214-.215A1.406,1.406,0,0,1,10.439-5.45Zm.659.363a2.435,2.435,0,0,0-.626-1.782,2.723,2.723,0,0,0-1.879-.825q-.2,0-.181-.215t.214-.215a3.073,3.073,0,0,1,2.159.957,2.916,2.916,0,0,1,.742,2.113q0,.2-.214.2T11.1-5.087Zm1.549.462q0,.2-.214.2t-.214-.2a4.131,4.131,0,0,0-1.187-3.1A3.811,3.811,0,0,0,8.264-8.784q-.231,0-.231-.215t.231-.215a4.2,4.2,0,0,1,3.1,1.221A4.488,4.488,0,0,1,12.648-4.625ZM12.285-1.39a2.872,2.872,0,0,1-.725.858,1.029,1.029,0,0,1-.989.231A9,9,0,0,1,9.022-.994,13.474,13.474,0,0,1,7.176-2.183,8.257,8.257,0,0,1,5.792-3.569a13.644,13.644,0,0,1-.989-1.5,9.8,9.8,0,0,1-.692-1.436l-.2-.429a1.159,1.159,0,0,1,.231-.99,3.361,3.361,0,0,1,.89-.726.605.605,0,0,1,.791.132l.593.726q.231.33.494.792a.782.782,0,0,1,.082.512.622.622,0,0,1-.214.38l-.4.3a.445.445,0,0,0-.165.3v.165l.132.363a4.211,4.211,0,0,0,.429.825,3.461,3.461,0,0,0,.857.924,3.439,3.439,0,0,0,1.351.693l.165-.033a.444.444,0,0,0,.3-.165l.33-.4a.621.621,0,0,1,.379-.215.6.6,0,0,1,.478.116,7.041,7.041,0,0,1,1.516,1.056A.607.607,0,0,1,12.285-1.39Z" transform="translate(3.633 16.25)" fill="#b2b2b2"/>
</svg>
