<svg id="меню_иконка-24px" data-name="меню иконка-24px" xmlns="http://www.w3.org/2000/svg" width="24" height="24" viewBox="0 0 24 24">
  <path id="Path_697" data-name="Path 697" d="M0,0H24V24H0Z" fill="none"/>
  <path id="соцсети" d="M16.161-8.972a5.73,5.73,0,0,1-.714,1.484Q15-6.745,14.377-5.766q-.535.772-.565.8a.855.855,0,0,0-.178.416.6.6,0,0,0,.178.356l.268.3A11.229,11.229,0,0,1,16.488-.867a.591.591,0,0,1-.074.549.646.646,0,0,1-.52.193H14.139a.946.946,0,0,1-.595-.208A4.521,4.521,0,0,1,12.9-.971q-.461-.52-.818-.876Q10.9-2.975,10.333-2.975a.524.524,0,0,0-.342.089.514.514,0,0,0-.1.386,8.53,8.53,0,0,0-.03.92v.772a.52.52,0,0,1-.178.5,2.153,2.153,0,0,1-1.071.178A5.583,5.583,0,0,1,5.783-.956a7.879,7.879,0,0,1-2.5-2.375A17.86,17.86,0,0,1,1.59-6.092,17.783,17.783,0,0,1,.728-8.081,4.586,4.586,0,0,1,.52-9.12q0-.5.595-.5H2.869a.709.709,0,0,1,.491.148,1.2,1.2,0,0,1,.282.534A17.069,17.069,0,0,0,4.653-6.627,9.678,9.678,0,0,0,5.723-4.934q.535.653.833.653a.265.265,0,0,0,.253-.134,1.209,1.209,0,0,0,.074-.52V-7.517a2.139,2.139,0,0,0-.208-.831,1.974,1.974,0,0,0-.3-.46.733.733,0,0,1-.208-.416A.365.365,0,0,1,6.3-9.506a.456.456,0,0,1,.312-.119H9.381a.423.423,0,0,1,.372.148.913.913,0,0,1,.1.5v3.444a.652.652,0,0,0,.089.386.269.269,0,0,0,.223.119.643.643,0,0,0,.312-.1,2.342,2.342,0,0,0,.476-.43A10.418,10.418,0,0,0,12.087-7.1a15.887,15.887,0,0,0,.743-1.425l.3-.594a.747.747,0,0,1,.743-.5h1.754Q16.339-9.625,16.161-8.972Z" transform="translate(3.48 16.625)" fill="#b2b2b2"/>
</svg>
