<svg id="меню_иконка-24px" data-name="меню иконка-24px" xmlns="http://www.w3.org/2000/svg" width="24" height="24" viewBox="0 0 24 24">
  <path id="Path_697" data-name="Path 697" d="M0,0H24V24H0Z" fill="none"/>
  <path id="соцсети" d="M13.607-9.054a8.282,8.282,0,0,1,1.768,2.589A7.531,7.531,0,0,1,16-3.446,7.584,7.584,0,0,1,14.911.518a8.121,8.121,0,0,1-2.929,2.893A7.775,7.775,0,0,1,8,4.482a7.718,7.718,0,0,1-3.786-.964L0,4.625,1.143.518A7.68,7.68,0,0,1,.071-3.446,7.68,7.68,0,0,1,1.143-7.411,8.023,8.023,0,0,1,4.036-10.3,7.68,7.68,0,0,1,8-11.375a7.721,7.721,0,0,1,3.018.607A8.322,8.322,0,0,1,13.607-9.054ZM8,3.161a6.5,6.5,0,0,0,3.321-.893A6.784,6.784,0,0,0,13.768-.143a6.3,6.3,0,0,0,.911-3.3,6.133,6.133,0,0,0-.536-2.5,7.064,7.064,0,0,0-1.482-2.161,6.618,6.618,0,0,0-2.143-1.446A6.465,6.465,0,0,0,8-10.054a6.4,6.4,0,0,0-3.3.893A6.686,6.686,0,0,0,2.286-6.75a6.4,6.4,0,0,0-.893,3.3A6.335,6.335,0,0,0,2.429.054L2.571.3,1.893,2.732l2.5-.643.25.143A6.368,6.368,0,0,0,8,3.161ZM11.607-1.8l.107.071A.633.633,0,0,1,12-1.554a.918.918,0,0,1,.018.357,1.85,1.85,0,0,1-.143.589A1.489,1.489,0,0,1,11.3,0a1.805,1.805,0,0,1-.768.339,3.271,3.271,0,0,1-.964,0,7.417,7.417,0,0,1-1.429-.5A8.079,8.079,0,0,1,4.821-3.089L4.75-3.161A3.608,3.608,0,0,1,3.964-5.2,2.258,2.258,0,0,1,4.607-6.8l.036-.036a.751.751,0,0,1,.536-.25h.429a.447.447,0,0,1,.232.054A.49.49,0,0,1,6-6.768L6.607-5.3a.394.394,0,0,1,.036.357,2.459,2.459,0,0,1-.464.643A.8.8,0,0,0,6-4.071q-.036.089.071.2A4.62,4.62,0,0,0,7.25-2.411a9.151,9.151,0,0,0,1.5.893q.286.143.429-.036.464-.536.643-.786.071-.143.179-.143a1.049,1.049,0,0,1,.25.036Q10.536-2.339,11.607-1.8Z" transform="translate(4 15.375)" fill="#b2b2b2"/>
</svg>
